<svg xmlns="http://www.w3.org/2000/svg" viewBox="0 0 2060.4 595.17"><defs><style>.cls-1{isolation:isolate;}.cls-10,.cls-2,.cls-4,.cls-5,.cls-6,.cls-8{fill:#75a042;}.cls-2,.cls-6{fill-rule:evenodd;}.cls-10,.cls-2,.cls-3,.cls-5{opacity:0.7;}.cls-4{opacity:0.84;}.cls-10,.cls-4{mix-blend-mode:multiply;}.cls-7{opacity:0.8;}.cls-9{fill:#aad7e2;}.cls-11{fill:#705f06;}.cls-12{fill:#4d2200;}.cls-13{fill:#231f20;}</style></defs><g class="cls-1"><g id="Capa_1" data-name="Capa 1"><path class="cls-2" d="M729.08,232.93a9.26,9.26,0,1,1-9.25-9.25A9.25,9.25,0,0,1,729.08,232.93Z"/><g class="cls-3"><path class="cls-4" d="M279.78,267.49c.19,2.6-4.34,4.88-5.43,1.65-1-2.8,1.2-7.53,4-6,1.85,1,.31,2.84.61,3.57C279.25,267,279.52,267.13,279.78,267.49Z"/><path class="cls-4" d="M270.53,264.42c.1-.69,1.92-1.78,2.63-1.86-1.36-3.08-4.66-8.64-.12-11,2.79-1.45,4.1-.31,4.68,2.14a24.31,24.31,0,0,1,1,6,5.6,5.6,0,0,0,2.07-.62c2.43-.86,5.43-1.84,7.54.26a3.57,3.57,0,0,1-.42,5.47c-.74.59-2,.1-2.88.41-2,.66-4.82,4.27-7.76,2.09-3.68-2.73.92-7.91,3.36-8.85a10.92,10.92,0,0,1,3.43-.38"/><path class="cls-4" d="M271.41,263.13c-2.21,1.21-1.64,6.42,1.56,5.66,2.78-.66,5.46-5.08,2.71-6.77-1.79-1.1-2.47,1.24-3.22,1.38A8.9,8.9,0,0,0,271.41,263.13Z"/></g><g class="cls-3"><path class="cls-4" d="M365.44,227.45c-1.66,9-17.65-2.09-20.77-7,1.48-2.46,15-.73,19.59,4C365.15,225.35,365,226.44,365.44,227.45Z"/><path class="cls-4" d="M354.51,231.39a5.24,5.24,0,0,0,1.25-1.41c4.67-4.95,10.79-8.31,15.09-7.2.45.5,1.29.6.73,1.95,0,1.41-1.3,1.87-1.76,3.23a21.91,21.91,0,0,1-10.11,7.25c-2.68.15-5.43.59-7.88-.28l-.3.16-.07-.53C352.52,233.75,353.38,232,354.51,231.39Z"/></g><g class="cls-3"><path class="cls-4" d="M329,259.64c.41.1.67.53,1.11.57-.25.53.11.91.37,1.26.13.06.2.27.22.43a.5.5,0,0,1-.32.34,1.82,1.82,0,0,1,.38,1c-.1.29-.37.4-.59.57.42.49.11,1.22.05,1.85-.08.07-.15.19-.27.21l-.26-.09c-.07.67.27,1.45-.26,2.12-.09-.07-.11.07-.17.1s-.37.12-.5,0a2.8,2.8,0,0,1-.87,1.48c-.13.09-.26,0-.38.05-.12.28-.16.78-.57.76l-.58-.17c-.12.29-.28.62-.6.64-.66.29-1-.67-1.65-.05a1.21,1.21,0,0,1-1-.76.67.67,0,0,0-.21-.52c-.46-.15-1.28.3-1.37-.45-.1-.34-.27-.7-.7-.69-.23.12-.34-.25-.45-.32-.06-.42-.39-.74-.23-1.19-.15-.3-.91-.13-.66-.76-.19-.61.25-1.24.44-1.88-.15-.07-.51-.1-.6-.35-.25-.57.37-.95.45-1.53a13.86,13.86,0,0,1,1.72-2.18c.26-.7,1.11-.75,1.66-1,1.39-.44,2.76-1.08,4.18-.38A5.24,5.24,0,0,1,329,259.64Z"/><path class="cls-4" d="M316.81,245.92a3.23,3.23,0,0,0,1.41.73c5,2.91,9.28,8.09,9.66,13.21-.24.71-.09,1.67-1.25,1.65-1.06.59-1.78-.59-2.93-.51a18.31,18.31,0,0,1-8.29-7.81c-.87-2.84-2-5.62-2-8.66l-.22-.24.38-.31C314.48,244.78,316,245,316.81,245.92Z"/><path class="cls-4" d="M326,257.32l0,.06c.17-.21.17-.41.39-.57a7.31,7.31,0,0,1,1.38-1.8l.17.05a6.86,6.86,0,0,1,.87-.81.09.09,0,0,1,.12,0l.75-.58.05,0,.83-.56c.16.08.27-.1.41-.18a6.13,6.13,0,0,1,.81-.37l0,0c.58-.16,1.14-.41,1.72-.51l.05.07a2.54,2.54,0,0,1,1-.28c.1.23.24,0,.38,0l.78-.07c.11.25.33-.06.51,0a1.78,1.78,0,0,1,1,.13c.41.07,1,0,1.24.28.49-.14.66.31,1.14.12.3.09.61.08.81.27l.87.22,0,.06a4.71,4.71,0,0,1,1.63.46l.11.18c.46.17,1.28.13,1.35.72a1.6,1.6,0,0,1,1.38.69,1,1,0,0,1-.65.89c0,.52-.66.65-.57,1.14-.11.45-.68.59-.69,1.05a1.92,1.92,0,0,1-1.08.84c0,.14.2.15.11.3-.12.38-.55.53-.69.9-.41.27-.51.75-.9,1a8.18,8.18,0,0,1-3.32,2.08c-.42.08-.77.26-1.16.35-.14.06-.31,0-.45.1a3.36,3.36,0,0,1-1,0,10.14,10.14,0,0,1-1.51.47c-.06.17-.24.09-.39.12a4,4,0,0,0-1,.26c-.54,0-1.12-.15-1.66-.16v.05c-.09,0-.09-.09-.17-.05a8.87,8.87,0,0,1-1.81-.44h0a10.09,10.09,0,0,1-2.65-1.46c-.24.44-.24,1-.53,1.44a.51.51,0,0,1-.4-.13.26.26,0,0,1-.24-.06,3.5,3.5,0,0,0,.21-2.35,9.55,9.55,0,0,1,.5-3.34A3.62,3.62,0,0,0,326,257.32Z"/><path class="cls-4" d="M321.05,254.88c10.36,3.09,1.41,15.45-5.45,12.16a6.48,6.48,0,0,1-.75-11C316.05,255.17,319.31,255.07,321.05,254.88Z"/></g><path class="cls-5" d="M323.2,290.14v0a1.26,1.26,0,0,0,.27,0,3.62,3.62,0,0,0,.85-.2v-.06a2.06,2.06,0,0,0,.42-.17s0,0,0,0l.33-.15,0,0,.33-.19c0-.06.08-.07.13-.11s.17-.12.26-.2l0,0c.15-.16.32-.31.46-.49l0,0a1.29,1.29,0,0,0,.25-.28c-.06-.07.06-.07.06-.13l.14-.25c-.07-.07.07-.1.07-.16a.65.65,0,0,0,.11-.34c0-.14.15-.31.09-.44.13-.14,0-.26.14-.39s.07-.21,0-.3l.06-.31,0,0a1.49,1.49,0,0,0,.09-.59l-.05-.06c0-.18.15-.44,0-.54.06-.17.11-.41,0-.55a.39.39,0,0,0-.42.08c-.18-.09-.33.12-.5,0s-.31.14-.48.08a.79.79,0,0,0-.47.22c-.05,0,0-.08-.09-.07s-.27.1-.43.1-.34,0-.5.14a3.16,3.16,0,0,0-1.26.78c-.09.12-.21.21-.31.32s0,.11-.1.14a1.19,1.19,0,0,0-.18.33,3.89,3.89,0,0,0-.39.43c-.08,0-.08.06-.11.11a1.73,1.73,0,0,1-.25.3c-.08.17-.13.37-.21.55h0s0,0,0,.06a3.08,3.08,0,0,0-.12.65h0a3.23,3.23,0,0,0,.11,1.07c-.19,0-.39-.06-.59,0,0,0,0,.11,0,.15s0,0,0,.08a1.5,1.5,0,0,1,.87.27,3.7,3.7,0,0,0,1.27.31C323,290.12,323.09,290.14,323.2,290.14Z"/><path class="cls-5" d="M302,291.91c.47-4.15-.23-9.48.93-12.47,1.91-.87,1.81,1.84,2.06,4.17.34,3,.1,11.54-.72,13.43-.52,0-.61.56-.86.44l-.09-.38c-.39,0-.57.08-.82-.18C302.44,296.13,302.23,292.48,302,291.91Z"/><path class="cls-5" d="M302.88,283h0c0-.07,0-.12.08-.19a1.53,1.53,0,0,1,.33-.59h.08a1.66,1.66,0,0,1,.25-.3h.06l.23-.23h0l.27-.23c.09,0,.11-.06.16-.09a2.43,2.43,0,0,1,.29-.19h0c.23-.1.44-.23.68-.33l0,0a1.5,1.5,0,0,1,.38-.19c.09,0,.1,0,.19,0l.32-.11c.09,0,.14-.05.23-.05a1.44,1.44,0,0,1,.44-.09,2.14,2.14,0,0,1,.59-.08c.2-.09.35,0,.53-.11a2.88,2.88,0,0,1,.39,0l.42-.05,0,0a4.25,4.25,0,0,1,.79-.09l.07,0c.24,0,.59-.12.71,0a1.26,1.26,0,0,1,.72,0c.07.09,0,.2-.15.29.1.12-.18.23-.06.34s-.22.22-.15.33a.61.61,0,0,1-.34.33s.11,0,.1.06-.16.19-.17.29-.1.25-.24.36a3.17,3.17,0,0,1-1.13.89c-.17.07-.3.16-.45.22s-.15,0-.19.08a2.06,2.06,0,0,1-.46.13,5.23,5.23,0,0,1-.58.29s-.1,0-.16.07a3.14,3.14,0,0,0-.41.19l-.75.16h0s-.05,0-.08,0c-.28,0-.61.09-.87.11h0a7.14,7.14,0,0,1-1.39,0c-.05.14,0,.27,0,.41a.36.36,0,0,1-.2,0,.14.14,0,0,1-.11,0c0-.2,0-.45-.27-.58a1.4,1.4,0,0,1-.31-.86C302.9,283.14,302.87,283.07,302.88,283Z"/><path class="cls-5" d="M295.75,274.3c.62.34,1.2.95,1.91,1a5.61,5.61,0,0,1,3.06,1c1.43,1.08,2.9,2.49,2.56,4.48,0,0,0,.07,0,.11h0l0,.06s0-.05,0-.05-.07.27,0,.37-.12.16-.21.15a4.25,4.25,0,0,1-2.45-.51,1.29,1.29,0,0,1-.44-.31,2.44,2.44,0,0,1-.6-.64l0,0c-.48-.38-.73-.93-1.22-1.27a3.53,3.53,0,0,1-.21-.32h0c-.11-.26-.36-.46-.41-.78a3.67,3.67,0,0,1-.38-1.07h-.05c.07-.07,0-.23-.07-.34s-.24-.45-.43-.66c-.37-.39-.78-.75-1.19-1.12l0-.09Z"/><path class="cls-5" d="M307.28,274.45c.25,1.89-.56,4.45-2.07,5.41a5.08,5.08,0,0,1-2.51.46c-.42.05-.43.5-.72.68l-.1-.05a.4.4,0,0,1,0-.21c.73-.59.23-1.5.26-2.42a3.88,3.88,0,0,1,3.23-3.49C306,274.7,306.77,274.18,307.28,274.45Z"/><path class="cls-5" d="M308.55,284.4c-3.72-.38-2.85,4.52,0,3.93,1.64-.34,2.12-2.52,1.39-3.14Z"/><path class="cls-5" d="M295.46,282.21a2.11,2.11,0,0,1,.51.65c1.95,2.25,4.71,3.91,6.87,3.65.25-.19.66-.19.48-.78.09-.58-.5-.83-.64-1.41a10.09,10.09,0,0,0-4.45-3.45,11.74,11.74,0,0,0-3.85-.24l-.13-.08-.08.22C294.64,281.15,294.94,281.9,295.46,282.21Z"/><path class="cls-5" d="M302.88,292.58c0-.05-.05-.08-.08-.11a1.47,1.47,0,0,0,.61-1.56,3.25,3.25,0,0,0-.52-.77s0,0,0,0a.46.46,0,0,1-.13-.23v0a1.37,1.37,0,0,0-.13-.2c-.43-.77-1.37-1.19-2.11-1.76a4.52,4.52,0,0,0-.84-.38c-.09-.18-.54-.21-.75-.32a4,4,0,0,0-2-.1.58.58,0,0,0-.33.23c.07,0,0,.12,0,.18-.35.2-.08.45-.12.67.05.4.5.68.65,1.1a9.79,9.79,0,0,0,3.22,2.79,3.18,3.18,0,0,0,2.33.44s.06.05.1.05S302.86,292.64,302.88,292.58Z"/><path class="cls-5" d="M308.78,290.59a1.72,1.72,0,0,1-.64,0c-2.29.08-4.53.88-5.23,2.21,0,.23-.14.46.32.62s.76.09,1.2.27a7.61,7.61,0,0,0,4.11-.95,7,7,0,0,0,1.73-2.05l.11,0-.11-.14A14.45,14.45,0,0,0,308.78,290.59Z"/><path class="cls-5" d="M323.35,274.82c-.08.19,0,.25.07.35.16,1.32-.78,3.62-2.7,5.83-.34.3-.67.71-1,.69-.51.24-.23-.29-.56-.27-.28-.74.11-2.07.93-3.49a41.78,41.78,0,0,1,2.89-3.76l0-.1.22-.13C323.19,274.3,323.51,274.4,323.35,274.82Z"/><path class="cls-5" d="M319.66,290.59h0c0-.08,0-.1,0-.18a1.34,1.34,0,0,0-.07-.61l-.07,0a1.39,1.39,0,0,0-.12-.34.09.09,0,0,0-.06,0l-.12-.28h0l-.16-.31c-.09,0-.08-.09-.11-.14a2.22,2.22,0,0,0-.21-.27h0a6.62,6.62,0,0,0-.51-.56h0a1.71,1.71,0,0,0-.29-.32c-.1,0-.08-.08-.16-.11l-.27-.24c-.11,0-.11-.1-.2-.15a2.48,2.48,0,0,0-.39-.27,2.43,2.43,0,0,0-.54-.34c-.14-.16-.32-.16-.46-.32a2.36,2.36,0,0,0-.36-.21l-.38-.23h0a4.11,4.11,0,0,0-.73-.43l-.09,0c-.21-.12-.51-.36-.68-.32a1.66,1.66,0,0,0-.7-.33c-.11,0-.08.15,0,.29-.15,0,.08.26-.08.28s.11.27,0,.32a.6.6,0,0,0,.18.41s-.11,0-.11,0,.07.22,0,.3,0,.23.08.38a3.17,3.17,0,0,0,.71,1.21c.14.13.22.25.35.38s.12.08.14.14a2.53,2.53,0,0,0,.39.31c.15.17.27.33.44.49,0,.05.08.09.12.13a2.5,2.5,0,0,1,.32.34c.21.15.45.31.66.47h0s.06,0,.08,0a7.34,7.34,0,0,0,.79.49h0a9.69,9.69,0,0,0,1.36.62c0,.13-.16.19-.16.32a.36.36,0,0,0,.18.1.26.26,0,0,0,.11.07c.12-.14.19-.35.51-.32a1.23,1.23,0,0,0,.66-.51C319.58,290.69,319.63,290.65,319.66,290.59Z"/><path class="cls-5" d="M319,280.28l.44-.45c1.93,1.6,2.77,9.59,2.63,12.79-.07,1.46,0,4.32-2,6.08l-.23.07C316.23,296.48,320.17,284.65,319,280.28Z"/><path class="cls-5" d="M322.1,284.57a3.34,3.34,0,0,1-1.25.14c-.43-1.79,3.2-4.18,4.9-5.36a9,9,0,0,1,3-1.28v0l0,.1a21.56,21.56,0,0,0-2,2.83A19.64,19.64,0,0,1,322.1,284.57Z"/><path class="cls-5" d="M314.84,281a1.25,1.25,0,0,1,.22.55,7.69,7.69,0,0,0,4.63,4.37c.3,0,.66.09.71-.32.29-.33-.13-.66,0-1.07a7.26,7.26,0,0,0-2.6-3.48,13.93,13.93,0,0,0-3.27-1.35l-.09-.09-.14.11C314.52,280.13,314.51,280.68,314.84,281Z"/><g class="cls-3"><path class="cls-4" d="M284.47,278.35c.1.18,0,.24,0,.35,0,1.33,1.16,3.49,3.18,5.45.35.26.7.63,1,.57.49.18.17-.3.47-.33a5.17,5.17,0,0,0-1.28-3.34,40.36,40.36,0,0,0-3.08-3.38l-.05-.1-.22-.1C284.55,277.82,284.27,278,284.47,278.35Z"/><path class="cls-4" d="M289,291.41h0c0-.08-.05-.09,0-.18a1.32,1.32,0,0,1,0-.6l.06-.05a1.75,1.75,0,0,1,.07-.36s0,0,.05,0l.07-.29,0,0,.12-.32c.07,0,.05-.1.08-.15a2.09,2.09,0,0,1,.15-.3h0c.14-.21.24-.41.39-.62h0a1.51,1.51,0,0,1,.23-.35c.08,0,.06-.09.12-.13l.22-.27c.09,0,.08-.11.16-.17a1.57,1.57,0,0,1,.32-.31,2.7,2.7,0,0,1,.44-.4c.11-.17.28-.2.37-.37a2.83,2.83,0,0,1,.31-.25l.31-.27h0a5,5,0,0,1,.61-.51l.07,0c.18-.14.42-.41.58-.39a1.54,1.54,0,0,1,.59-.42c.1,0,.09.15,0,.29.14,0,0,.27.11.28s-.07.27,0,.31a.65.65,0,0,1-.11.43s.09-.06.1,0,0,.22,0,.3,0,.22,0,.38a3.21,3.21,0,0,1-.5,1.27c-.1.15-.16.28-.26.42s-.1.1-.11.16a4.6,4.6,0,0,1-.31.35,5.35,5.35,0,0,1-.34.54s0,.09-.09.14a4,4,0,0,0-.25.37c-.16.17-.37.35-.53.54h0s-.05,0-.07.05c-.2.19-.45.41-.65.57h0a8.24,8.24,0,0,1-1.15.77c0,.12.17.17.18.3a.42.42,0,0,1-.15.12s-.05.05-.09.08c-.12-.13-.21-.32-.5-.26a1.1,1.1,0,0,1-.66-.42C289.06,291.51,289,291.47,289,291.41Z"/><path class="cls-4" d="M289.12,283.24l-.46-.39c-1.54,1.8-1.29,9.79-.76,12.95.25,1.43.57,4.26,2.54,5.78l.21,0C293.64,298.94,288.59,287.7,289.12,283.24Z"/><path class="cls-4" d="M286.83,287.84a3.12,3.12,0,0,0,1.15,0c.16-1.82-3.42-3.76-5.11-4.74a8.17,8.17,0,0,0-2.89-.92v0a.31.31,0,0,0,0,.1,21.92,21.92,0,0,1,2.18,2.57A18.24,18.24,0,0,0,286.83,287.84Z"/><path class="cls-4" d="M292.76,281.55c-.11.13-.09.29-.12.44a5.78,5.78,0,0,1-3.56,3.66c-.26,0-.57.12-.68-.18-.3-.23,0-.52-.11-.82a5,5,0,0,1,1.86-2.84,12.55,12.55,0,0,1,2.75-1.27l.06-.08.14.07C292.92,280.84,293,281.26,292.76,281.55Z"/><path class="cls-4" d="M288.65,290.09h0c0-.06,0-.12-.1-.17a1.55,1.55,0,0,0-.4-.54H288a2.52,2.52,0,0,0-.29-.26s0,0-.06,0l-.25-.2,0,0-.3-.2c-.09,0-.11,0-.17-.07l-.31-.15,0,0c-.24-.08-.46-.18-.71-.24h0a1.4,1.4,0,0,0-.41-.13c-.08.05-.11,0-.19,0l-.33-.06c-.08,0-.14,0-.23,0a1.4,1.4,0,0,0-.45,0,2,2,0,0,0-.6,0c-.2-.07-.33,0-.53,0a2.36,2.36,0,0,0-.39,0h-.42l0,0a3.47,3.47,0,0,0-.79,0l-.07,0c-.23,0-.59,0-.69.11a1.22,1.22,0,0,0-.72.08c-.06.11,0,.2.19.28-.09.13.21.2.1.32s.24.19.19.31a.63.63,0,0,0,.37.29s-.1,0-.08.07.18.16.2.27.13.22.28.32a3.22,3.22,0,0,0,1.24.74c.17,0,.3.11.47.16s.14,0,.19,0a3.29,3.29,0,0,0,.47.08c.21.07.39.15.61.21,0,0,.1,0,.17.05a2.7,2.7,0,0,1,.43.13c.25,0,.51,0,.76.06v0s.05,0,.09,0a8.19,8.19,0,0,0,.86,0h0a7.65,7.65,0,0,0,1.38-.22c.06.13,0,.27.06.41a.44.44,0,0,0,.2,0h.11c0-.21-.05-.45.2-.62a1.46,1.46,0,0,0,.19-.89C288.65,290.24,288.67,290.16,288.65,290.09Z"/></g><g class="cls-3"><path class="cls-4" d="M275,297.8c-1.19-3.37-1.66-8-3.21-10.25-1.76-.35-1.15,1.9-.91,3.89.31,2.58,2.16,9.68,3.22,11.09.43-.11.62.35.81.21,0-.12,0-.23,0-.34.34,0,.5,0,.66-.31C275.44,301.41,274.89,298.32,275,297.8Z"/><path class="cls-4" d="M272.5,290.51l0,0s0-.1-.1-.14A1.43,1.43,0,0,0,272,290h-.07a1.11,1.11,0,0,0-.27-.2h0l-.24-.15,0,0-.27-.15c-.07,0-.1,0-.15,0l-.28-.1h0c-.21,0-.41-.11-.63-.14l0,0a1.55,1.55,0,0,0-.36-.08c-.07,0-.1,0-.17,0l-.29,0c-.07.06-.12,0-.2,0a1.26,1.26,0,0,0-.39,0,1.41,1.41,0,0,0-.51.05c-.18,0-.29.06-.46,0a1.09,1.09,0,0,0-.33.05l-.36,0h0a3.72,3.72,0,0,0-.68.08l-.06.05c-.2,0-.51,0-.58.15a1.08,1.08,0,0,0-.61.13c0,.1.05.17.18.22-.06.12.2.16.12.27s.22.15.19.25a.5.5,0,0,0,.35.21s-.09,0-.07.07.17.13.2.21.13.18.26.26a3,3,0,0,0,1.13.52c.15,0,.27.07.42.1s.12,0,.16,0a1.93,1.93,0,0,0,.42,0c.18,0,.34.09.54.12,0,0,.09,0,.15,0a2.33,2.33,0,0,1,.38.08l.66,0v0s0,0,.07,0a6,6,0,0,0,.74-.08h0a6.79,6.79,0,0,0,1.16-.3c.06.1,0,.23.09.34a.32.32,0,0,0,.17,0,.34.34,0,0,0,.1,0c0-.18-.09-.39.11-.55a1.31,1.31,0,0,0,.09-.78C272.52,290.64,272.53,290.58,272.5,290.51Z"/><path class="cls-4" d="M276.77,281.85c-.45.41-.82,1-1.4,1.23a4.84,4.84,0,0,0-2.37,1.4c-1,1.18-1.94,2.64-1.26,4.24,0,0,0,.06.05.09h0l0,0s0,0,0,0,.11.2.08.3.14.11.21.09a3.68,3.68,0,0,0,1.95-.91,1.23,1.23,0,0,0,.31-.34,2.07,2.07,0,0,0,.38-.66l0,0c.33-.41.43-.92.78-1.3,0-.11.08-.18.11-.3h0c.05-.24.22-.46.2-.74a3,3,0,0,0,.1-1h.05c-.07-.05,0-.21,0-.3s.11-.43.23-.64c.24-.4.51-.78.78-1.16l-.05-.08Z"/><path class="cls-4" d="M267.16,284.23c.16,1.62,1.34,3.6,2.79,4.12a4.41,4.41,0,0,0,2.19-.11c.36,0,.46.33.73.43l.07-.06a.32.32,0,0,0,0-.18c-.72-.36-.49-1.21-.69-2a3.33,3.33,0,0,0-3.38-2.28C268.25,284.19,267.53,283.9,267.16,284.23Z"/><path class="cls-4" d="M268,292.79c3-1,3.27,3.22.77,3.29-1.45,0-2.27-1.7-1.79-2.36Z"/><path class="cls-4" d="M278.56,288.41a1.65,1.65,0,0,0-.3.64c-1.2,2.27-3.18,4.19-5,4.39-.25-.11-.59,0-.55-.55-.19-.47.26-.8.27-1.31a8.63,8.63,0,0,1,3-3.75,9.79,9.79,0,0,1,3.17-.95l.1-.09.1.17C279,287.36,278.93,288.05,278.56,288.41Z"/><path class="cls-4" d="M274.37,298.53a.14.14,0,0,1,0-.11,1.28,1.28,0,0,1-.81-1.19,3.24,3.24,0,0,1,.29-.75s0,0,0,0a.27.27,0,0,0,.06-.21h0a.82.82,0,0,1,.06-.19,6.22,6.22,0,0,1,1.42-1.88,3.56,3.56,0,0,1,.63-.47c0-.17.41-.29.56-.43a3.49,3.49,0,0,1,1.64-.46c.12,0,.26,0,.32.13s0,.09.07.14c.33.1.16.36.22.54,0,.34-.28.67-.32,1a8.53,8.53,0,0,1-2.14,3,2.74,2.74,0,0,1-1.87.82s0,.06-.07.06A.16.16,0,0,1,274.37,298.53Z"/><path class="cls-4" d="M269.05,298a1.5,1.5,0,0,0,.53-.12c1.94-.38,4-.15,4.81.83,0,.19.21.35-.15.58s-.62.22-.95.46a6.63,6.63,0,0,1-3.62,0,6.31,6.31,0,0,1-1.85-1.38h-.09l.07-.14A11,11,0,0,1,269.05,298Z"/></g><path class="cls-6" d="M524.82,57.36a6.35,6.35,0,1,1-6.34-6.66A6.5,6.5,0,0,1,524.82,57.36Z"/><g class="cls-3"><path class="cls-4" d="M507.28,98.27c-7.68-2.9-8.8,12.73-6.93,17,2.71.1,9.36-9.72,8.49-14.89C508.67,99.39,507.77,99,507.28,98.27Z"/><path class="cls-4" d="M496.79,83.75c.51,1.37,1.48,2.59,1.51,4.23a15.15,15.15,0,0,0,1.32,6.87c1.66,3.08,3.88,6.22,7.23,5,.06-.08.12-.07.18-.1v.09l.1-.05s-.09,0-.09,0c.22-.06.46-.22.63-.11s.26-.33.27-.52a12.31,12.31,0,0,0-.62-5.58,2.53,2.53,0,0,0-.48-.94,4.15,4.15,0,0,0-1-1.27l-.07,0c-.58-1-1.48-1.5-2-2.56-.18-.13-.3-.3-.51-.43v0c-.42-.21-.72-.75-1.26-.82a4.25,4.25,0,0,0-1.74-.65l0-.11c-.12.16-.39,0-.55-.11-.35-.37-.75-.45-1.07-.84-.61-.81-1.17-1.69-1.75-2.54l-.16.08Z"/><path class="cls-4" d="M495.88,102.67a3.57,3.57,0,0,1,1.37.45c5,1.42,10.73,1.22,13.82-1.2.22-.52.85-.91.05-1.58-.4-.93-1.52-.73-2.26-1.44a18,18,0,0,0-9.91-.79c-2.16,1-4.44,1.75-6.14,3.29h-.27l.08.39C493.67,101.91,494.81,102.7,495.88,102.67Z"/></g><g class="cls-3"><path class="cls-4" d="M566.89,92.28c0-.76,1.34-1.09,1.6-1.49,2-6,18.43-8.53,19.25-.09-1.4,4.59-9.26,7-14.67,5.22A18.71,18.71,0,0,1,566.89,92.28Z"/><path class="cls-4" d="M591,85.09a1.33,1.33,0,0,0-.74.41,10.23,10.23,0,0,1-9.47-.4c-.32-.39-.88-.68-.58-1.24-.06-.74.75-.64,1-1.22a8.76,8.76,0,0,1,6.22-1A22.34,22.34,0,0,1,592.61,84h.18l.08.3C592.21,84.4,591.75,85.07,591,85.09Z"/></g><g class="cls-3"><path class="cls-6" d="M674,291.6c20.69,5.87,20.69-7.27,25.35-11.86,2.67-2.64,7.32-2.59,8.71-6.24a14.33,14.33,0,0,0,.23,2,13.22,13.22,0,0,0,1.45-1.74c-.15.43-.09,1.37-.2,1.83,3.38,1.6,6.86,2.81,10.26,4.3a42.66,42.66,0,0,1,0,4.38c-1.83.11-3.72-.12-5.55,0-1.27.12-4.06-.09-5,.26-3.54,1.28-2.45,6.7-2,9.51a14.1,14.1,0,0,1-11.84,15.63,20.87,20.87,0,0,1-16.61-5.19c-1.71-1.56-7.64-9.71-3.08-11"/></g><path class="cls-5" d="M490,360.35c0,2.54,1.64,4.83,2,7.72.78,6.21-.42,12.75-.46,19,0,3.39.46,5.79-3.36,6.6-7.81,1.65-16.37.38-24.27,1.42,5.67-5.19,6.5-12.11,7.48-19.66.68-5.21,1.41-12.15,3.36-17,1.21-3,3.62-4.47,2.55-8.06-4.24,3.89-9.68-.36-10.08-5.31-.56-6.85,5.81-9.85,12-7.67,5.88,2.07,2.63,5.82,2.21,9.85-.49,4.68,4.08,4.51,7.13,2.79s4.73-5.09,5.74-8.32c2.29-7.31,2.62-15.56,2.49-23.18.57.92,1.17,1.76,1.75,2.67.74-1.5,1-3.42,2.16-4.71,0,1.28,0,2.58,0,3.87a9.85,9.85,0,0,0,4.18-3.07c.22,1.63-1.23,2.89-1.36,4.49a6.1,6.1,0,0,0,2.22-.94c-2.35,1.95-5.44,4.83-6.11,7.86-1.12,5-.51,10.23-1.28,15.3-.93,6.15-4.69,8.53-7.58,13.51A5.71,5.71,0,0,0,490,360.35Z"/><path class="cls-5" d="M506.86,312.15a5.74,5.74,0,1,1-5.73-6A5.87,5.87,0,0,1,506.86,312.15Z"/><g class="cls-7"><path class="cls-8" d="M389.67,59.52c7.06-4.69,3.88-20.07-2.31-24.17-2.84-1.88-8-1.41-12.43-1.23C350.25,44.92,366,75.29,389.67,59.52Z"/></g><g class="cls-3"><path class="cls-8" d="M346.88,34.89c-1.92-.2-5.84,3.44-7.18,4.65a27,27,0,0,0-5.28,6.62c-3.06,5.37-4.42,11.57-5.16,17.65-.58,4.73.1,9.57-.41,14.33-.15,1.38-.3,5.39-1.88,6.12-2.17,1-7.93-3.77-10-4.6-2.79-1.12-5.68-2.11-8.51-3.16-3.89-1.45-4.83-1.74-5.46-5.94-1.22-8.26,3.06-18.11,9.56-23.42-4.85,1.62-10,7.4-13.07,11.36-3.64,4.74-2.28,9.35-2.66,14.76-2.85.22-6.64-2.43-7.87.25-.53,1.14,0,5.73,1,6.62,2.71,2.49,7.16.29,10.27,1.38s6.48,3.49,9.6,4.93c7.36,3.37,14.68,7.15,20,13.43,3.95,4.67,6.31,10.09,8.42,15.79,1.43,3.85,2.65,9.07,5,12.43,5-3.83,7.32-10.73,10.81-15.82-2.25-2.19-3.89-3.33-5.13-6.19-.71-1.65-1.45-3.28-2.14-4.94A84.65,84.65,0,0,1,341.89,85a62.06,62.06,0,0,1,9.21-46.45C350.28,36.41,349.65,35.17,346.88,34.89Z"/></g><g class="cls-3"><path class="cls-8" d="M583.92,168.15v-.05a3.37,3.37,0,0,0-.9.12c0,.15.08.3.11.46Z"/></g><path class="cls-8" d="M509.78,63.35c.52.49,1.07.93,1.61,1.39A11.36,11.36,0,0,0,509.78,63.35Z"/><g class="cls-3"><path class="cls-8" d="M42.64,254.28c.7.86.27.66,1.58,1.05l.27-.26v-1.32H43.17C43,253.92,42.82,254.1,42.64,254.28Z"/></g><path class="cls-9" d="M291.11,361.84c-25.4-6.31-47.79,12.44-65,28.52,73.81-39.95,85.67,16.36,87.79,40.91,5.1,59.25-63.09,123.63-108,66.05-31.25-40.09,9.3-73.22,38.07-64.3,27.13,8.41,26.28,27.89,14,41C238.15,495.31,214.57,467.5,236,456c-16.72,3.37-23.21,23-13.51,34.57,17.78,21.16,51.65,1.26,58-12.28,22.22-47.4-17.36-70.28-53.77-68.16-17,1-33.85,13.35-44.45,26.66C154.48,471.69,167,540.92,258.11,539.15c19.92-.39,42.7-3.3,62.18-26.17C348.43,479.94,360.93,379.2,291.11,361.84Z"/><g class="cls-3"><path class="cls-8" d="M699.71,475.32c.4-.1-.09,0-1.14.23Z"/></g><path class="cls-9" d="M561.13,403.13c-21.56,4.21-50.06,17.92-51.11,53.22-1.55,51.83,35.3,65.34,64.28,62.18,34.78-4.74,44.79-28.46,41.63-44.26-8.07-40.36-62.18-37.94-60.6,0,.15,3.34,3.69,12.64,4,12.38-.27-.26.26-19.23,18.17-25.56,13.72-.28,35.77,30.25,6.59,39.52-61.38,19.5-68.5-85.62,1.32-77.46,34.6,4.05,45.31,82.73,94.32,56.91-.14-.28,14.42-3.55,18.88-4.51C631.35,488.49,642.87,395.8,561.13,403.13Zm-28.19,28.46c.18-.36.35-.71.53-1.06l.26.53Z"/><path class="cls-5" d="M248.24,108.85c5.7-2,10.33-3.34,13.15-9,2.14-4.3,3.57-11.31,2.06-15.93,6.05-4.71,5.11,12.79,4.46,15.13-2.22,7.93-8.83,15.71-15.17,20.51"/><g class="cls-3"><path class="cls-8" d="M278.34,124.07c3.38-6.14-3.65-14.9-6.28-20.31-4.38-9-9.65-17.61-13.66-26.68,4.26-1.38,8.45-4.44,12-7a47.29,47.29,0,0,1,8.3,12.11c-3.55.51-7.35-2-11-2-1.11,7.87,7.9,19.39,11,26.28a65.59,65.59,0,0,1,3.8,11.07"/></g><path class="cls-5" d="M66,384c3.28,2.46,5.14-2.49,2.14-3.57-1.74-.63-3.37,1.08-3,2.06Z"/><g class="cls-3"><path class="cls-4" d="M73.28,392.89l0,0c-.15-.08-.17-.17-.36-.23a5.47,5.47,0,0,0-1.22-.69l-.12,0a7.87,7.87,0,0,0-.75-.29.07.07,0,0,0-.09,0l-.61-.21,0,0-.68-.19c-.12.05-.21,0-.33-.05s-.41-.09-.64-.11v0c-.45,0-.9-.11-1.34-.12l0,0a3.38,3.38,0,0,0-.77-.06c-.06.11-.19,0-.3,0l-.58,0c-.06.11-.25,0-.38.05a2,2,0,0,0-.71.11,2.44,2.44,0,0,0-.89.2c-.39,0-.47.18-.85.13a2.28,2.28,0,0,0-.57.17l-.62.15,0,0a5.05,5.05,0,0,0-1.16.31l-.07.08c-.33.1-.93.14-.92.41-.38.05-.84.16-1,.39,0,.17.28.29.59.35,0,.22.55.23.54.46s.57.21.63.4a1.81,1.81,0,0,0,.89.31c0,.06-.13.07,0,.13s.47.2.61.35c.34.09.46.3.79.39a8.63,8.63,0,0,0,2.71.69c.32,0,.6.07.9.08.11,0,.23,0,.35,0a4.27,4.27,0,0,0,.79-.06,11.3,11.3,0,0,0,1.17.11c.07.07.19,0,.31,0a5.16,5.16,0,0,1,.79.05c.4-.05.81-.13,1.22-.18l0,0s0,0,.12,0a9.52,9.52,0,0,0,1.3-.31h0a7.33,7.33,0,0,0,1.81-.82c.24.18.3.43.56.6a.45.45,0,0,0,.29-.09.24.24,0,0,0,.17,0c-.23-.32-.6-.66-.42-1a2.88,2.88,0,0,0-.73-1.43A2.57,2.57,0,0,1,73.28,392.89Z"/><path class="cls-4" d="M75,375.18c-.38,1.23-.43,2.7-1.21,3.72a12.15,12.15,0,0,0-2.63,5.17c-.58,3.14-.87,6.72,1.6,8.56.07,0,.1.05.15.08l-.06,0,.08,0s0-.05,0-.08c.14.12.36.21.4.41s.31,0,.41-.11a9.33,9.33,0,0,0,2.38-3.85,3,3,0,0,0,.2-.94,5.32,5.32,0,0,0,0-1.54h-.06c.17-1.07-.1-2,.14-3.08,0-.22,0-.41-.09-.65v0c-.13-.45,0-1-.3-1.45a6,6,0,0,0-.66-1.73l.07-.05c-.15,0-.2-.32-.26-.49,0-.48-.2-.84-.18-1.33,0-.95.17-1.91.26-2.86L75.1,375Z"/><path class="cls-4" d="M58.15,385.93c4.5,3.16,12.43,7.05,17.33,8.08,2.78.59,3.77,0,5.19-.16.81-.07,2,.66,2.92.85,0,0,0-.08,0-.11a2.73,2.73,0,0,0-.52-.36c-2.69-.71-4.25-2.36-6.7-3.85-4-2.45-10.11-4.63-14.17-4.53C60.79,385.89,58.28,385.31,58.15,385.93Z"/><path class="cls-4" d="M82.55,386.19a6.28,6.28,0,0,0-.73,1.42c-2.72,5-6.34,9-8.94,9-.28-.31-.78-.21-.47-1.42,0-1.15.75-1.8,1-3a23.1,23.1,0,0,1,6-8c1.62-.68,3.25-1.62,4.75-1.43l.16-.2.06.41C83.71,383.87,83.22,385.43,82.55,386.19Z"/><path class="cls-4" d="M74.77,393.87a3.9,3.9,0,0,0,.53,1.79c4.7,2.64,8.06-.36,9.78-1.71a3.61,3.61,0,0,0,1.07-3.27l-.11-.06-.22,0c-.62.44-4.38-.08-5.57,0C77.77,390.77,76.24,392.42,74.77,393.87Z"/><path class="cls-4" d="M76.69,392.79a2.41,2.41,0,0,0-1-.09c-4.27.43-4.87,5.39-4.75,8.28.15,3.39.61,6.07,1.37,6.52,1.82,1.07,4.31-6.13,4.5-8.51C76.93,397.67,78.57,393.39,76.69,392.79Z"/><path class="cls-4" d="M71.4,394.74c5,2.31-4.72,9.83-8.29,10.88-1.18-1.24,2.51-8.77,6.25-10.67C70.1,394.58,70.72,394.83,71.4,394.74Z"/></g><g class="cls-3"><path class="cls-4" d="M660.11,256.37c-8.65,4.19-11.59-13.93-9.87-19.14,3.15-.4,11.94,10.36,11.47,16.49C661.62,254.92,660.61,255.46,660.11,256.37Z"/><path class="cls-4" d="M649.39,274.41c.46-1.66,1.46-3.17,1.33-5.09a17.81,17.81,0,0,1,.82-8.16c1.62-3.77,3.87-7.65,7.9-6.62.08.09.15.07.23.1l0-.11.12.05s-.1,0-.09.06c.25,0,.56.21.74.06s.34.36.37.58a14.33,14.33,0,0,1-.14,6.57,3.08,3.08,0,0,1-.46,1.15,5.1,5.1,0,0,1-1,1.59l-.07-.06c-.58,1.25-1.58,1.91-2.07,3.2a7.33,7.33,0,0,1-.56.55l0,0c-.47.3-.77.95-1.39,1.09a4.65,4.65,0,0,1-2,.94l0,.13c-.17-.18-.45.08-.64.18-.36.47-.82.61-1.16,1.1-.63,1-1.19,2.09-1.77,3.14l-.2-.07Z"/><path class="cls-4" d="M646.35,252.43a4,4,0,0,0,1.55-.66c5.7-2.19,12.39-2.55,16.25-.05.31.58,1.09,1,.22,1.84-.36,1.12-1.69,1-2.48,1.91a21.11,21.11,0,0,1-11.48,2c-2.62-.89-5.36-1.58-7.5-3.19l-.32,0,.06-.46C643.86,253.56,645.11,252.51,646.35,252.43Z"/></g><g class="cls-3"><path class="cls-4" d="M482.32,129c3,11.29,22.39-3.27,25.89-9.64-2.16-3.06-19.32-.39-24.68,5.78C482.48,126.3,482.78,127.66,482.32,129Z"/><path class="cls-4" d="M496.5,133.84a5.49,5.49,0,0,1-1.51-1.62c-5.62-5.67-13.19-9.51-18.71-8.26-.61.58-1.68.69-1.06,2.22-.06,1.62,1.53,2.15,2,3.71a26.23,26.23,0,0,0,12.4,8.29c3.4.18,6.86.7,10-.29l.36.2.13-.61C498.88,136.54,497.9,134.58,496.5,133.84Z"/></g><path class="cls-5" d="M619.93,114.93a2,2,0,0,0,.58-.89c2.3-3.16,6.33-5.68,10.26-5.67.54.2,1.27.14,1.24.91.43.72-.48,1.13-.43,1.89a12.2,12.2,0,0,1-6.1,5,26.33,26.33,0,0,1-6.66.87l-.18.13-.24-.26C619,116.4,619.18,115.41,619.93,114.93Z"/><path class="cls-5" d="M617.91,106.48c.29,0,.36-.17.48-.3,2-1,5.6-.77,9.34,1,.52.37,1.21.67,1.24,1.14.48.67-.37.52-.26,1a8.69,8.69,0,0,1-6.24,1.22c-2.06-.72-3.23-2.07-5.46-3.2h-.16l-.25-.28C617.15,107,617.23,106.45,617.91,106.48Z"/><path class="cls-5" d="M628.4,109.55c5.47-4.81,11.27,7.81,11.07,12-2.21.93-10.81-5.15-11.69-9.71C627.6,110.9,628.22,110.31,628.4,109.55Z"/><path class="cls-5" d="M635.45,109.75a.52.52,0,0,1-.39-.07,5.5,5.5,0,0,0-4.56,1.83c-.12.24-.37.48-.17.7,0,.38.43.19.6.44a4.34,4.34,0,0,0,3.11-.56,14.09,14.09,0,0,0,2.28-2l.09,0v-.16C636.09,109.89,635.8,109.64,635.45,109.75Z"/><g class="cls-3"><path class="cls-4" d="M552,110.25c0-.81,1-1.17,1.2-1.59,1.52-6.38,13.92-9.11,14.54-.09-1,4.9-7,7.52-11.08,5.57A13.81,13.81,0,0,1,552,110.25Z"/><path class="cls-4" d="M571,104.82c-.24,0-.39.26-.56.43a5.77,5.77,0,0,1-7.15-.41c-.24-.43-.66-.74-.43-1.33-.05-.8.55-.69.73-1.31a5,5,0,0,1,4.7-1.1,15.09,15.09,0,0,1,3.9,2.53l.14,0,.06.32C571.87,104.08,571.52,104.8,571,104.82Z"/></g><g class="cls-3"><path class="cls-4" d="M684.69,229.31c.14.6.2.74.5.89,3,3.41,17.6-3.84,16.54-10.68-2.17-2.71-9.44-.17-13.68,4.24C686.35,225.5,685.7,227.35,684.69,229.31Z"/><path class="cls-4" d="M701.34,232.28c-1.06,2-2.62,4.82-4,5.71-2.27-2.59-7.29-14.11-3.41-20.93.33-.23.67-.47,1-.72C701.66,214.22,702.14,226.72,701.34,232.28Z"/><path class="cls-4" d="M713.14,217.59c-.61.1-1.09-.34-1.6-.63a17.41,17.41,0,0,0-18,4.46c-.45,1-1.37,1.85-.57,3,.2,1.69,1.71,1.14,2.42,2.37a15,15,0,0,0,12.35,0c3-2.16,6.21-4,8.87-7.25l.35,0v-.71C715.68,218.71,714.49,217.38,713.14,217.59Z"/><path class="cls-4" d="M701.62,225.21a.88.88,0,0,1-.41-.2,5.05,5.05,0,0,1-4.77.9,18.51,18.51,0,0,1-2.78-1.4c-.1,0,.1.07.14,0a2.14,2.14,0,0,0-.81-.35l.08,0c-.25-.09-.48-.2-.72-.31-2.69-1.2-4.57-3.41-6.77-5.22a12.77,12.77,0,0,1-1.65-2c-.62-.25-1-1.28-1.45-1.76a7.4,7.4,0,0,1-1.31-4.44c.12-.29.24-.59.59-.67.08.14.38,0,.57-.05.47-.71,1.41,0,2.12,0,1.33.2,2.48,1.3,3.91,1.75,3.79,2.36,7.78,4.48,10.7,8a7.12,7.12,0,0,1,2.61,5.32c.14,0,.2.15.21.24S701.79,225.18,701.62,225.21Z"/><path class="cls-4" d="M701.37,204.39c-2.09-1.94-4.61,3.44-5.33,5.59-1,3.17-3.42,11.37-.46,13.42l1.88.56c0,.46,0,1.13.57,1a4.18,4.18,0,0,0,0-1,1.25,1.25,0,0,0,.15-.19c5.6-1,5.72-12.55,4.88-15.73C702.7,206.72,701.82,205.83,701.37,204.39Z"/></g><path class="cls-10" d="M640.68,108.65a1.43,1.43,0,0,0-.75.41,10.23,10.23,0,0,1-9.47-.39c-.31-.4-.87-.69-.57-1.25-.06-.74.74-.64,1-1.22a8.76,8.76,0,0,1,6.22-1,23,23,0,0,1,5.16,2.36h.18l.08.3C641.85,108,641.38,108.63,640.68,108.65Z"/><path class="cls-5" d="M578.69,320c3,3,4.74,8.48,3,12-1,2-3,2.79-4.41,3.87-.77.61-.2,1.4-.53,2.08l-.25,0a1.2,1.2,0,0,1-.34-.34c.67-1.93-1.51-2.9-2.66-4.56-1.9-2.72-1.6-7,1.81-10C576.54,322,577.31,320.19,578.69,320Z"/><path class="cls-5" d="M143.53,168.5a3.68,3.68,0,0,1,1.41.4c5.24,1.28,12.06,1.12,16.76-1,.5-.45,1.42-.8.78-1.4,0-.82-1.46-.64-2-1.27a25.25,25.25,0,0,0-11.29-.74,48.32,48.32,0,0,0-8.68,2.89h-.32l-.07.34C141.29,167.82,142.27,168.53,143.53,168.5Z"/><path class="cls-5" d="M159.87,183.48c2.63-2.07,4.84-7.13,4.27-11.38-.34-2.41-1.65-4-2.42-5.55-.43-.89.11-1.51,0-2.32l-.17-.12a.55.55,0,0,0-.29.24c.11,2.22-1.59,2.47-2.7,3.8-1.81,2.15-2.36,6.7-.51,11C158.72,180.71,158.94,182.84,159.87,183.48Z"/><path class="cls-5" d="M164.63,163.49c-3.54.07-8.91,2.16-11.53,5-1.49,1.62-1.58,3.16-2.13,4.47-.31.75-1.18.89-1.68,1.44a1.21,1.21,0,0,0,.05.14.71.71,0,0,0,.39,0c1.52-1.42,3-.8,4.84-1.1a12.52,12.52,0,0,0,8.38-6.51C163.54,165.71,164.9,164.31,164.63,163.49Z"/><path class="cls-5" d="M576.16,353.12a1.86,1.86,0,0,0,.48-.06,1,1,0,0,1-.2-.07,1.2,1.2,0,0,0,.2,0c4.86,0,17.22-8.61,12.21-20.8-.84-.36-10.34,8-13,10.84-1.83-2-9.57-14.38-12.1-13.34C558.46,338.12,571.52,353.12,576.16,353.12Z"/><path class="cls-5" d="M117.75,386.13c-1-.05-2,.3-2.94-.21a7.81,7.81,0,0,0-4.43-1.24c-2.31.29-4.81,1-5.11,4,0,.07,0,.12,0,.18l0-.05v.1s0-.08,0-.05,0,.42-.12.52.12.32.23.39a6.52,6.52,0,0,0,3.45,1.34,1.39,1.39,0,0,0,.71-.06,2.36,2.36,0,0,0,1-.37v-.06c.77-.12,1.32-.67,2.1-.71a2.7,2.7,0,0,0,.39-.27h0c.25-.26.66-.31.85-.71a3.52,3.52,0,0,0,.91-1.15l.06.05c-.06-.14.14-.29.23-.4.32-.14.49-.43.81-.55.66-.22,1.34-.36,2-.53v-.16Z"/><path class="cls-5" d="M90.55,398.08c2.88-1.67,3.56-3.2,5.79-6.7C99.1,387,104,387.22,106.73,388c1,.27,3,.57,3.78,2.71,1.29,3.46-.73,7.82-4.08,9.44-4.81,2.33-7.55.16-12.16-.88l-3.57.47-.4-.85C90.38,398.62,90.47,398.35,90.55,398.08Z"/><path class="cls-5" d="M294,138c7.61-2.88,8.72,12.62,6.87,16.88-2.68.1-9.28-9.64-8.42-14.76C292.63,139.15,293.52,138.77,294,138Z"/><path class="cls-5" d="M304.41,123.65c-.51,1.36-1.47,2.56-1.51,4.19a14.91,14.91,0,0,1-1.3,6.81c-1.65,3.06-3.84,6.16-7.16,5-.07-.08-.13-.07-.19-.1v.1l-.09,0s.08,0,.08-.05c-.21-.05-.45-.21-.62-.1s-.26-.33-.27-.53a12.3,12.3,0,0,1,.62-5.51,2.81,2.81,0,0,1,.47-.95,4.31,4.31,0,0,1,1-1.25l.06.05c.59-1,1.48-1.48,2-2.54a5.43,5.43,0,0,1,.51-.42v0c.41-.21.71-.74,1.25-.81a3.9,3.9,0,0,1,1.73-.65l0-.11c.13.16.39,0,.55-.11.34-.37.74-.44,1.07-.83.6-.8,1.15-1.67,1.72-2.51l.17.07Z"/><path class="cls-5" d="M305.31,142.4a3.68,3.68,0,0,0-1.36.44c-5,1.42-10.63,1.21-13.69-1.19-.22-.5-.85-.9-.05-1.56.38-.92,1.51-.72,2.24-1.42a17.81,17.81,0,0,1,9.82-.79c2.14,1,4.4,1.73,6.08,3.27h.27l-.09.37C307.49,141.64,306.36,142.43,305.31,142.4Z"/><path class="cls-5" d="M129.08,295.36c-8.85-.51-3.23,15.57.48,19.31,2.73-.74,5.09-12.73,2-17.64C131,296.05,129.89,296,129.08,295.36Z"/><path class="cls-5" d="M112.41,284.06c1.11,1.21,2.59,2.14,3.33,3.76a18.41,18.41,0,0,0,4.28,6.51c3,2.59,6.52,5,9.34,2.79,0-.1.09-.11.13-.16l0,.09.07-.07s-.07,0-.1,0c.19-.12.36-.37.57-.31s.13-.41.05-.61a14.74,14.74,0,0,0-3-5.41,3.66,3.66,0,0,0-.88-.81,5.32,5.32,0,0,0-1.55-.95l0,.07c-1-.84-2.11-1-3.09-1.95a6,6,0,0,0-.68-.27l0,0c-.51-.08-1-.52-1.6-.42a4.43,4.43,0,0,0-2-.11l0-.13c0,.2-.4.09-.6.07-.5-.27-.93-.22-1.43-.52-.94-.61-1.88-1.32-2.82-2l-.13.13Z"/><path class="cls-5" d="M119.68,303.38a3.68,3.68,0,0,1,1.55,0c5.58-.14,11.17-2.14,13.19-5.55,0-.58.44-1.18-.64-1.6-.79-.8-1.82-.25-2.86-.73a18.25,18.25,0,0,0-10.16,2.31c-1.73,1.64-3.65,3.15-4.67,5.24l-.27.08.25.36C117.16,303.29,118.63,303.74,119.68,303.38Z"/><path class="cls-5" d="M189.15,280.43c3.37,11.4-13.83,9.09-18.61,5.42-.18-3.8,10.5-10.63,16.22-8.13C187.88,278.21,188.33,279.56,189.15,280.43Z"/><path class="cls-5" d="M188.89,272.19c-.22.16-.2.49-.26.78a6.32,6.32,0,0,1-6.91,4.08c-.49-.26-1.08-.3-1.23-1-.54-.75.11-1-.13-1.74a5.62,5.62,0,0,1,3.69-4,16.77,16.77,0,0,1,5.2,0l.11-.09.26.28C189.25,270.91,189.37,271.84,188.89,272.19Z"/><path class="cls-5" d="M155.79,252.9c1.74,1.75,2.77,5,1.77,7-.56,1.16-1.77,1.63-2.57,2.26-.45.35-.11.81-.31,1.21h-.14a.61.61,0,0,1-.2-.19c.39-1.13-.88-1.7-1.56-2.67a4.46,4.46,0,0,1,1.06-5.85C154.54,254.05,155,253,155.79,252.9Z"/><path class="cls-5" d="M210,158.34a4.78,4.78,0,0,1,1.9.53c7.06,1.73,16.25,1.51,22.59-1.35.67-.62,1.91-1.09,1.05-1.89-.07-1.11-2-.87-2.71-1.72a34.23,34.23,0,0,0-15.21-1c-4,1.14-8.07,2.07-11.7,3.89h-.43l-.1.46C206.94,157.41,208.26,158.37,210,158.34Z"/><path class="cls-5" d="M232,178.52c3.55-2.79,6.53-9.61,5.76-15.33-.45-3.25-2.23-5.34-3.26-7.48-.58-1.21.15-2.05,0-3.14a2.5,2.5,0,0,1-.24-.16.78.78,0,0,0-.38.32c.15,3-2.14,3.34-3.64,5.12-2.44,2.91-3.17,9.05-.68,14.87C230.42,174.78,230.72,177.65,232,178.52Z"/><path class="cls-5" d="M238.4,151.58c-4.78.1-12,2.9-15.55,6.76-2,2.17-2.13,4.25-2.87,6-.41,1-1.59,1.2-2.25,1.94a1.39,1.39,0,0,0,.06.19,1,1,0,0,0,.53,0c2-1.91,4.08-1.08,6.52-1.48a16.85,16.85,0,0,0,11.28-8.77C236.92,154.58,238.76,152.69,238.4,151.58Z"/><path class="cls-5" d="M154.32,272.21a1.26,1.26,0,0,0,.28,0,.24.24,0,0,1-.12,0l.12,0c2.83,0,10-5,7.12-12.13-.49-.21-6,4.68-7.56,6.32-1.07-1.15-5.58-8.38-7.06-7.78C144,263.46,151.62,272.21,154.32,272.21Z"/><path class="cls-5" d="M201.08,96.31c10.25-3.88,11.75,17,9.26,22.75-3.62.13-12.51-13-11.36-19.89C199.22,97.81,200.42,97.3,201.08,96.31Z"/><path class="cls-5" d="M215.09,76.92c-.69,1.84-2,3.46-2,5.64a20.29,20.29,0,0,1-1.76,9.19c-2.22,4.12-5.17,8.3-9.65,6.71-.08-.1-.16-.09-.25-.13l0,.12-.13-.06s.11,0,.11-.06c-.27-.08-.6-.3-.83-.14s-.36-.45-.36-.71c-.5-2.74.23-5.16.83-7.43a3.59,3.59,0,0,1,.63-1.27A5.73,5.73,0,0,1,203,87.09l.09.07c.8-1.37,2-2,2.67-3.43a6.7,6.7,0,0,1,.69-.56l0,0c.56-.28,1-1,1.68-1.09a5.43,5.43,0,0,1,2.33-.87l0-.15c.16.22.52,0,.74-.15.46-.49,1-.59,1.43-1.12.81-1.07,1.56-2.25,2.33-3.38l.22.09Z"/><path class="cls-5" d="M216.31,102.19a4.84,4.84,0,0,0-1.84.59c-6.68,1.91-14.32,1.64-18.45-1.6-.29-.68-1.14-1.21-.07-2.1.53-1.24,2-1,3-1.92A24,24,0,0,1,212.2,96.1c2.89,1.28,5.94,2.33,8.2,4.4h.36l-.11.51C219.24,101.17,217.73,102.23,216.31,102.19Z"/><path class="cls-5" d="M321.76,109.74c-11.92-.69-4.34,21,.65,26,3.68-1,6.87-17.14,2.7-23.77C324.29,110.67,322.85,110.53,321.76,109.74Z"/><path class="cls-5" d="M299.31,94.5c1.49,1.64,3.48,2.89,4.48,5.08a24.93,24.93,0,0,0,5.76,8.77c4,3.48,8.79,6.78,12.59,3.75,0-.13.12-.15.18-.21l0,.12.1-.1s-.1,0-.13,0c.25-.16.48-.5.77-.42s.17-.55.06-.82c-.69-2.94-2.47-5.16-4.07-7.28a4.8,4.8,0,0,0-1.18-1.1,7,7,0,0,0-2.09-1.28l-.05.1c-1.39-1.14-2.86-1.41-4.17-2.63a7.66,7.66,0,0,0-.92-.36l0,0c-.68-.12-1.4-.71-2.15-.58a6.09,6.09,0,0,0-2.72-.14l0-.17c-.06.27-.54.12-.8.09-.67-.36-1.26-.29-1.92-.7-1.28-.82-2.54-1.78-3.81-2.69l-.17.17Z"/><path class="cls-5" d="M309.1,120.53a5,5,0,0,1,2.08,0c7.52-.2,15.05-2.89,17.78-7.49,0-.77.6-1.59-.86-2.15-1.06-1.08-2.45-.34-3.85-1a24.63,24.63,0,0,0-13.7,3.12c-2.33,2.21-4.92,4.24-6.28,7.06l-.37.11.34.48C305.71,120.41,307.69,121,309.1,120.53Z"/><path class="cls-5" d="M193.86,229.59c4.54,15.36-18.63,12.25-25.07,7.31-.24-5.12,14.15-14.33,21.85-11C192.15,226.6,192.76,228.42,193.86,229.59Z"/><path class="cls-5" d="M193.51,218.49c-.29.21-.27.66-.35,1a8.49,8.49,0,0,1-9.3,5.5c-.67-.34-1.46-.39-1.67-1.36-.73-1,.15-1.37-.17-2.35a7.58,7.58,0,0,1,5-5.42,22.12,22.12,0,0,1,7,0l.16-.12.35.38C194,216.76,194.16,218,193.51,218.49Z"/><path class="cls-5" d="M172.25,240.09a3.31,3.31,0,0,1,1.46.27,31.88,31.88,0,0,0,18-2.69c.58-.52,1.58-1,1-1.54,0-.86-1.5-.54-2-1.15a26.94,26.94,0,0,0-12,.33,61.91,61.91,0,0,0-9.54,3.88l-.33,0-.11.37C169.93,239.58,170.9,240.23,172.25,240.09Z"/><path class="cls-8" d="M284,63.27c-4.29-2.4-10.12-3.08-15-3.19-2.19,0-6.59-.9-8.43,0-1.23.62-3.95,5.13-2.37,6.91.78.88,3.43,0,4.45-.07,3-.13,6.17-.09,9.21,0a84.45,84.45,0,0,1,12.81,1.83,30.64,30.64,0,0,0,.37-5.5"/><g class="cls-3"><path class="cls-4" d="M366.09,73.27c-8.65,4.19-11.59-13.93-9.87-19.14,3.15-.41,11.94,10.36,11.47,16.48C367.6,71.82,366.59,72.36,366.09,73.27Z"/><path class="cls-4" d="M355.37,91.3c.46-1.65,1.46-3.17,1.33-5.08a17.66,17.66,0,0,1,.82-8.16c1.61-3.77,3.87-7.66,7.9-6.62.08.09.15.07.23.09l0-.1.12,0s-.1,0-.09.06c.25,0,.55.21.73.06s.35.36.38.59a14.57,14.57,0,0,1-.14,6.56,3.13,3.13,0,0,1-.46,1.16,5,5,0,0,1-1,1.58l-.08-.06c-.58,1.26-1.57,1.91-2.06,3.21a7.27,7.27,0,0,1-.56.54l0,0c-.47.29-.77,1-1.39,1.08a4.65,4.65,0,0,1-2,.94l0,.14c-.16-.18-.45.07-.64.18-.37.47-.83.6-1.16,1.1-.63,1-1.19,2.09-1.77,3.14l-.2-.07Z"/><path class="cls-4" d="M352.33,69.32a4,4,0,0,0,1.55-.66c5.7-2.18,12.39-2.54,16.25,0,.31.57,1.08,1,.22,1.83-.36,1.12-1.69,1-2.49,1.91a21.17,21.17,0,0,1-11.47,2c-2.62-.9-5.36-1.58-7.5-3.2l-.32,0,.06-.46C349.84,70.45,351.09,69.4,352.33,69.32Z"/></g><g class="cls-3"><path class="cls-4" d="M415.72,92.93c-7.43,6.15-17.11-8.6-17.22-13.6,3.11-1.27,16.15,5.43,17.9,10.84C416.74,91.24,415.9,92,415.72,92.93Z"/><path class="cls-4" d="M411.21,111.63c-.13-1.56.35-3.16-.48-4.78a14,14,0,0,1-2.14-7.27c.29-3.73,1.2-7.74,5.76-8a.51.51,0,0,0,.27,0l-.07-.08h.14s-.1,0-.07.08c.28,0,.65,0,.78-.17s.5.21.61.4a11.7,11.7,0,0,1,2.25,5.7,2.35,2.35,0,0,1-.05,1.13,3.88,3.88,0,0,1-.5,1.67l-.1,0c-.14,1.25-.93,2.11-1,3.37-.15.2-.2.42-.38.63v0c-.37.39-.44,1-1,1.34-.37.67-1,.92-1.68,1.39l.09.1c-.24-.1-.44.2-.6.35-.2.51-.63.76-.8,1.28-.28,1-.47,2.16-.68,3.23h-.23Z"/><path class="cls-4" d="M400,93.57a4.09,4.09,0,0,0,1.36-1c5.1-3.56,11.89-5.83,16.8-4.81.53.41,1.48.51.91,1.52,0,1.07-1.39,1.36-1.88,2.37a24.56,24.56,0,0,1-11.16,5.07c-3,0-6.13.21-8.94-.56l-.32.12-.11-.41C397.86,95.28,398.77,94,400,93.57Z"/></g><path class="cls-5" d="M473.61,191.48a5,5,0,0,1,1.93.52c7.21,1.72,16.58,1.5,23.06-1.34.68-.6,1.95-1.08,1.07-1.87-.07-1.09-2-.86-2.76-1.7a35.63,35.63,0,0,0-15.52-1c-4.08,1.12-8.24,2-11.94,3.86H469l-.1.46C470.53,190.55,471.87,191.51,473.61,191.48Z"/><path class="cls-5" d="M496.08,211.5c3.62-2.76,6.66-9.53,5.86-15.21-.45-3.23-2.26-5.3-3.31-7.42-.6-1.2.14-2,0-3.12l-.24-.15a.75.75,0,0,0-.4.32c.17,3-2.18,3.31-3.7,5.08-2.49,2.88-3.25,9-.7,14.75C494.48,207.79,494.8,210.64,496.08,211.5Z"/><path class="cls-5" d="M502.64,184.77c-4.88.1-12.27,2.89-15.88,6.7-2,2.18-2.17,4.23-2.93,6-.42,1-1.62,1.18-2.3,1.92,0,.06,0,.12.07.19a1.1,1.1,0,0,0,.55,0c2.08-1.89,4.15-1.07,6.66-1.46a17.11,17.11,0,0,0,11.49-8.7C501.12,187.74,503,185.87,502.64,184.77Z"/><path class="cls-5" d="M465.36,221.81c-2.86,10.68-21.16-3.08-24.47-9.09,2-2.9,18.27-.38,23.33,5.45C465.22,219.31,464.93,220.6,465.36,221.81Z"/><path class="cls-5" d="M452,226.44a5.22,5.22,0,0,0,1.41-1.53c5.32-5.36,12.48-9,17.69-7.8.58.54,1.59.64,1,2.09.06,1.53-1.45,2-1.93,3.51a24.85,24.85,0,0,1-11.72,7.83c-3.22.17-6.48.66-9.47-.27l-.34.18-.12-.58C449.71,229,450.64,227.13,452,226.44Z"/><path class="cls-5" d="M512.8,297.56c7.33,1.48,4.56-12.61,1.92-16.18-2.37.3-5.78,10-3.79,14.49C511.32,296.75,512.19,297,512.8,297.56Z"/><path class="cls-5" d="M529.49,291.83c-1.38.11-2.75.62-4.23.28a15.48,15.48,0,0,0-6.54-.48c-3.26.66-6.72,1.78-6.66,4.82.06.06,0,.11,0,.17l-.08,0,0,.09s0-.07.06-.05c0,.18.07.42-.08.53s.21.3.38.35a12.36,12.36,0,0,0,5.17.76,3,3,0,0,0,1-.17,4.59,4.59,0,0,0,1.44-.55l0-.06c1.09-.25,1.78-.88,2.89-1.06.17-.12.35-.18.53-.33h0c.31-.29.88-.42,1.11-.84a4,4,0,0,0,1.1-1.3l.09,0c-.1-.13.15-.31.27-.43.43-.19.62-.51,1.08-.68.9-.33,1.85-.59,2.78-.87v-.15Z"/><path class="cls-5" d="M519.88,288.55a3.17,3.17,0,0,1-1.19.54c-4.21,2.11-7.76,5.63-8.08,9,.21.45.07,1.07,1.05,1,.89.33,1.48-.47,2.45-.47a15.55,15.55,0,0,0,6.94-5.4c.73-1.88,1.65-3.72,1.68-5.67l.17-.17-.31-.18C521.83,287.71,520.55,287.9,519.88,288.55Z"/><path class="cls-5" d="M389.67,218.44a7.47,7.47,0,0,0,2.33,1.68c5.09-2,3-9.59,2.1-13.26-.27-1.17-1.79-4.32-3.39-5.37l-.12,0a1.33,1.33,0,0,0-.14.19c.25,1.26-1.93,4.87-2.34,6.32C387.28,211.09,388.58,214.93,389.67,218.44Z"/><path class="cls-5" d="M394.12,229.36c2.93-1.38,5.08-5.11,1.78-7.27-.75-.48-1.74.19-2.6,0-1.85-.37-4.93-3.58-7.16-1-2.79,3.28,2.1,7.81,4.41,8.39C391.75,229.83,392.73,229.43,394.12,229.36Z"/><path class="cls-5" d="M701.42,376.88c4.55,15.41-18.68,12.29-25.15,7.33-.24-5.13,14.19-14.36,21.92-11C699.7,373.88,700.3,375.71,701.42,376.88Z"/><path class="cls-5" d="M701.06,365.75c-.28.22-.27.66-.34,1a8.55,8.55,0,0,1-9.35,5.53c-.66-.35-1.44-.4-1.66-1.38-.73-1,.14-1.37-.17-2.36a7.61,7.61,0,0,1,5-5.42c2.26-.18,4.41-.57,7,0l.16-.13.35.38C701.55,364,701.72,365.27,701.06,365.75Z"/><path class="cls-5" d="M679.74,387.42a3.08,3.08,0,0,1,1.46.27,32,32,0,0,0,18-2.7c.57-.52,1.59-1,1-1.55,0-.86-1.51-.54-2-1.16a27.08,27.08,0,0,0-12,.34,61.81,61.81,0,0,0-9.56,3.9l-.35,0-.11.36C677.41,386.9,678.39,387.56,679.74,387.42Z"/><path class="cls-5" d="M643.15,200.45c1.74,1,3.35,2.65,5.33,2.83A15.86,15.86,0,0,1,657,206c4,3,8.09,6.92,7.13,12.46-.1.09-.08.2-.1.3l.11,0,0,.16s0-.13-.07-.13c0,.34-.21.74,0,1s-.36.42-.61.41c-2.43.48-4.71-.56-6.84-1.42a4.06,4.06,0,0,1-1.22-.86,7.3,7.3,0,0,1-1.68-1.78l.05-.1c-1.32-1.06-2-2.59-3.4-3.53-.17-.31-.4-.51-.57-.88l0,0c-.33-.71-1-1.26-1.17-2.17a9.48,9.48,0,0,1-1.05-2.95l-.13,0c.18-.19-.1-.65-.2-.94-.51-.59-.66-1.28-1.19-1.85-1.06-1.07-2.21-2.07-3.33-3.1l.08-.25Z"/><path class="cls-5" d="M675.33,200.88c.67,5.24-1.58,12.36-5.78,15.05-2.38,1.51-4.94,1-7,1.26-1.17.15-1.21,1.39-2,1.89a1.34,1.34,0,0,1-.27-.13,1.25,1.25,0,0,1-.07-.6c2-1.64.65-4.16.74-6.73.16-4.2,3.56-8.66,9-9.68C671.86,201.58,673.91,200.14,675.33,200.88Z"/><path class="cls-5" d="M692.16,402.48a4.32,4.32,0,0,1,.46,2.39c2.12,8.65,8.5,17.55,16.93,21.11,1.34.07,2.85.85,3.47-.76,1.58-1.12,0-2.8.75-4.34-.72-5.77-4.06-11.73-8.56-16-4.31-2.87-8.38-6-13.48-7.88l-.3-.43-.73.33C691.54,398.6,691,400.81,692.16,402.48Z"/><path class="cls-5" d="M719.71,399c-.4.8-1.27,1.16-2,1.67-6.92,6.33-11.59,15.9-10,24,.71,1,.85,2.54,2.73,2.08,2,.53,2.62-1.55,4.52-1.86a27.89,27.89,0,0,0,10.1-15.1c.19-4.74.79-9.44-.44-14.16l.23-.45-.74-.36C723,396.38,720.59,397.22,719.71,399Z"/><path class="cls-5" d="M662.51,210.56c11-.81,2.42-17.79-2.53-21.38-3.3,1.25-5,14.91-.69,19.9C660.14,210.07,661.45,210,662.51,210.56Z"/><path class="cls-11" d="M561,130.91c-4.2,1.06-7,.72-8.63-.39C554.65,132.63,557.69,133.31,561,130.91Z"/><path class="cls-11" d="M769.53,412.62c2.44-3.72,2.69-6.35,2.64-10.81a38.34,38.34,0,0,0-8.34,9.89c-.35-5.17-.56-10.45-3.33-15.05-3.23-5.36-3.14-8.58-1.63-14.63.48-1.92,2-6.68-.32-8-4.15-2.39-5.34,10.25-5.39,12.53.15-6.54-2.79-10.7-5.63-16.07-6.53,2.89.94,14.11,3.92,16.72-2.81.22-8.92-.76-11.16,2.06-3.45,4.33,6,4.18,8.53,4.62,5.67,1,11.76,6.4,7.61,12.45-2.21,3.21-6.38,5.45-9.95,6.8s-8.42,3.47-10.91,4.24c1.22-3.43,6.33-6.9,5.81-10.8-7.33-1-7.69,5.6-8.14,10.9-1-3.61.29-7.57-1-11.18-.93-2.69-2.09-5.11-4.06-2.71-3.35,4.09-.87,10.41.88,14.38-1.18-.83-11.3-9.72-12.86-5.08-1,2.94,7.25,7.61,9.51,8-3.43,1.89-16.42,3.58-19.8,3.24-6.77-.69-28-13.07-30.12-21.74,0,.17,22.42-3.13,24.36-3.59,12.75-3.05,23.33-7.48,32.5-16.91,4.48-4.6,5.6-8.54,6.77-14.67.91-4.74,5.14-13,11.22-10.12,5.92,2.81,13.68,13.79,14,20.39.09,2.33-1.79,4.52-.8,6.69,8.49,1.69,4.81-14.38,3.53-17.76a74.57,74.57,0,0,0-5.21-11.8c-1.1-1.84-5.1-5.23-5.31-6.76,2.93-.87,4.89.05,6.73-2.74,1.28-1.94,2.43-6.26,1.42-8.45-1.4-3.06-6.17-3.8-8.9-2.51-2.23,1.06-3,3-4.05,5.05-.82,1.57.56,1.6-1.67,2-1.45.23-2.39-.52-3.58-1.18-3.53-2-6.66-4.89-10.65-6.39a36.32,36.32,0,0,0-14-1.95c-2,.1-4.33.75-6.44.31-2-.41-3.83-1.89-5.53-2.5.32.6.46,1.84.78,2.44a23.53,23.53,0,0,1-7.5-.49c-.15,2.25,3.7,4.21,5.53,4.72,3.61,1,7.59-.24,11.25-.28,4.92,0,13.3,2.38,15.56,7.34,1.57,3.46-1.92,4.48-3.91,6.82a18.46,18.46,0,0,0-4.15,8.48c-.67,3.95,0,8.17-1,12.06-.83,3.12-2.58,3.72-5,5.47C714.56,381,708.44,385,699.74,387c-10.69,2.46-22,2.55-32.86,1.28a11.42,11.42,0,0,1-1.85-.24c-8.54-2.49-6.07-7.63-4.84-13.92,4.6-2.58,7.87-2.74,9.75-8.17,3.42-.26,2.34-1.49,5.76-1.75,8.12-5.13,6.37-18.89,2.26-26-2.43-4.22-4.88-4.46-9.47-4.42-3.25,0-9.5.23-8.39,5.1,4.26.66,7.36-3.2,11.69.12,2.82,2.16,4.19,6.32,4.27,9.55.09,3.75-1.91,8.91-5.89,10.19s-6.11-2.35-9-4.51c-3-2.28-6.77-3.17-10.46-3.81-9.53-1.63-18.79-6.17-23.74-14.68-1.38-2.38-3.09-5.22-3.73-7.92-.47-2,.13-4.34-.74-6.17-4.85.73-10,.4-14.7,1.71-6,1.67-4.14,6.46.62,8.75s8.62,2.94,10,9.16c.91,4-1.19,7.8-.38,11.77.59,2.9-1.51,10.36-4.69,9-22.06-9.25-59.42-16-81.13-3.21-.92.55,12.14-49.9,73.3-59.78,23.29-3.76,45,4.3,67,10.77,12.58,3.72,23.93,10.44,41.43,7.16,3.42-.64,5.23-.53,8.55-1.54,3.13-.94,5.71-2.95,9-3.25a17,17,0,0,1,9.29,2c2.64,1.38,5,2.76,6.77,5.16.56.77,1.87,3.47,3.14,2.64,1-.67-.17-3.88-.62-4.61-1.15-1.86-3.39-2.94-5.2-4.05-1.34-.84-6.18-2.4-6-4.43.27-2.69,8.06-1.86,9.8-1.86,3,0,4.86.07,7.27,1.85.56.41,2,2.31,2.76,1.86,1-.57,0-2-.35-2.64-2.15-3.59-5.58-4.83-9.46-4.57-2.26.15-7.16.6-7.73-2.5-.29-1.57.92-3.86.72-5.71a56.44,56.44,0,0,0-1.62-6.86c-.23-1-.87-3.37-.19-4.47.81-1.31,3.64-2.23,5-3,2-1,3.66-.76,3.07-3.21-1.22-5-9.92,1.79-13.12-1.19,0,.34-.18.66-.23,1a15.32,15.32,0,0,1-1.63-1.59c.42,3.09-1.37,4.35-2.32,6.91-.51,1.4-.27,3.18-.79,4.67-5.73,16.53-22.62,14.81-47.28,7.11-.58-.18-1.23-.4-1.9-.64,0-.1,0-.21,0-.31l-2.77-1c0-.12,0-.24,0-.36.1-1.79,1.52-4.65,2.39-6.29a11.25,11.25,0,0,1,4.05-4c2.25-1.42,3.44-1.45,6-.63,3,1,2.62,1.69,5.16-.78-1.69-2.17-5-7.49-7.32-8.55-2.13-.95-12.69,4.5-17.65,4.77-7.9.43-15.57-2.75-23.32-3.79-6.33-.86-9.09,1.75-10.88,5.66-12.66-3.17-26.14-5-38.53-3.22-.5.07,2-3.27,2.38-3.58,1.7-1.21,4-1.75,5.78-2.93a15.53,15.53,0,0,0,6.9-9.06c1.1-4.16,1.62-8,5.08-11,3.09-2.72,6.87-2.35,8.13,2.29-.66-2.42-.1-4.79-.65-6.74-1-3.48-4.43-3.46-7.1-2.44-3.68,1.39-4.92,4.26-7.44,7-4.7,5.19-13.08,3.16-19.36,5.18-1.28.41-2.41,1.18-3.62,1.67-2.79,1.12-2.38.69-4.47-1.52-1.74-1.84-6.94-6.94-8.42-3.08-1.35,3.55,3.48,6.05,5.55,7.83,2.85,2.46,1.87,5,3.68,8,1.59,2.58,4.57,3.75,7.25,4.84,3.19,1.29,3.72,2.57,5.9,5.21-2.31-2.8-14.17,1.42-16.74,2.13a92.94,92.94,0,0,0-25.91,11.52c-1.49,4.94-1.07.26-1.42,0-1.26-3,6.05-24.91-1.42-43.41-.53-1.31,11.54-7.88,12.4-8.34a106.23,106.23,0,0,1,34.14-11.32c19.55-3,46.79-.07,64.83,7.91,12.25,5.42,41.63,26.69,63.34,24.56,4.54-.45,16.73,1.72,15.3-3.2-.93-3.23-1-10.63-5.34-9.61a50.73,50.73,0,0,1-17.68.4c-3.94-.55-8.19-1.59-11.35-4.15-1.55-1.26-2.6-2.94-4.13-4.2-2.59-2.12-5.91-3-8.73-4.73-15-9.23-29.59-18.28-47.18-22.15a178.61,178.61,0,0,0-20.2-3c-1.54-.16-10.07-2.38-11.14-1.72,5.86-3.61,24.7-25.82,68.16-19.74,4,.57,11,6.67,14.84,4.57-17.6-21.31-50-16.06-54.09-17.39.09-2.4,1.13-14.94.28-15.15,4.71,1.15,10.35,4.18,15.46,3.93a9.37,9.37,0,0,0,8.68-6.74c1.87-5.53-.44-15.82-7-17.64-.2,3.85,3,10.56-.81,13.22-5.53,3.9-11.16-2.48-14.53-6.25-1.28-1.42-4.57-3.56-5.24-5.27-1-2.65,1.2-5.44,0-8.44-1.57-3.85-4.73-7.65-9.32-5.79-3.52,1.43-6.8,6.43-3.86,10,1,1.23,7.14,3,5.2,5.15-2.57,2.89-8.11-3.72-9.52-5.07-5.1-4.88-5.43-12.51-10.61-17.45-3.1-2.95-6-2.86-10-3.94,8.57,1.84,7.64,10.08,8.75,16.68,1.27,7.46,6.67,10.88,10.29,16.75s3.05,14.11,2.31,20.75c-.66,5.92-1.71,12.24-5.62,17-2.09,2.58-8.08,10.6-11.87,7.11-2.23-2.06.37-10.26-.32-13.18-1-4.08-3.55-7.32-4.21-11.59-1.05-6.77.31-13.64-1.7-20.33-2.27-7.55-5.83-15.3-9-22.7-3.22-7.55-3.63-15.76-6.86-23.25a53.68,53.68,0,0,0-5.29-10.07c-1.71-2.36-5.06-4.19-5.79-6.94.09,4.49,3,8.33,3.83,12.78,1,5.16,1.68,10.11,2.55,15.25-6.37-8.21-27.79-7.84-32.12,3-1.34,3.36-.45,8.14,1.76,11.44-2-4.78,4.28-13.68,12.71-12.11,19.61,3.67,33.42,31,19.1,46.8-1.57,1.73-3.6,2.18-5.39,3.71a43.5,43.5,0,0,1-3.87,3.43c-3.85,2.55-7.21-2.19-8.5-7.35-1.26-5-1.24-6.11-.55-11.25.31-2.21,1.83-7.31-.57-8.9-2.12-1.41-3.76,1-5.31,2.12-2.29,1.6-6.31,4.16-5.37,7.21.27.85,1.1,1.63,1.35,2.51a27.13,27.13,0,0,1,.44,4.42c.25,2.56.38,5.29.49,7.84a110.32,110.32,0,0,1-.53,17.64c-.51,4.34-2.18,11.74-7.35,12.64-4.33.75-11.93-1.11-13-6a13,13,0,0,1,1.61-8.06c1.49-2.64,4.25-2.74,7.1-2.8-2.42-3.61-9.68-1.3-11.82,1.44a9,9,0,0,0-1.71,4.17c-.21,1.23.21,3.56-.45,4.62-2.9,4.65-8.23-7.07-8.76-8.38-1.64-4.12-3.75-8-5.58-12-1.38-3-3.92-7.15-3.47-10.57,1-7.29,7.34-11,12.73-14.83,9-6.39,11.43-13.25,12.68-23.85.44-3.64.11-6.31,2.64-9.34,2.3-2.74,4.48-5.51,7.5-7.45s6.52-3.78,8.59-6.79c1.2-1.75,1.16-3.19,1.62-5.13a12.49,12.49,0,0,1,5.64-8.47c2.62-1.77,5.94-3.28,6.69-6.67,1.09-4.91-2.09-7-6.3-8-4.55-1.07-8.21-.79-9.57,3.75-.63,2.12-1,2.51-.14,4.4,1.73,3.6,3.87,7.11-2.53,7.09-2.52,0-5.66-2.17-7.71-3.47a46.61,46.61,0,0,1-5.15-3.28,40.24,40.24,0,0,1-5.29-4.91,59,59,0,0,1-3.33-5.16c-.9-1.32-2.81-3.9-4.62-3.92-.94,0-1.49.69-2.24,1.14s-3.68.51-3.86,1.12,1.59,2.35,2.11,2.61c1.89.91,2.85,0,4.24,1.81a41.35,41.35,0,0,1,3.45,5.9c2.22,4.15,4.69,8.29,8.64,11,1,.66,3.42,1.13,3.14,2.69s-3.21,1.88-4.4,2.17c-2,.48-3,1.15-2.89,3.27.11,3.06,1.29,3.62-.82,6.1s-4.63,4.68-6.9,7c-3.52,3.61-4.41,6.78-5.42,11.51-.8,3.78-2.05,9.43-4.17,12.62-2.55,3.84-7.07,6.16-11.17,7.89s-7.88,3.8-12.06,5.38l-1.26.47c-4.8,1.81-9.25,4.94-14.09,6.52-2.77.91-9.44,2.33-12,.9-8.59-4.84-8.05-22.79,0-28.72-.09-.61-.17-1.23-.26-1.84-2.83-1.63-9.22.22-10.8,2.37q-1.73,4.47-3.43,9c-2.91,5.64-19.55,27.56-26.34,26.6-.27-.61-.53-1.23-.79-1.84l2.1-2.11c.18-.52.35-1,.53-1.58a5.26,5.26,0,0,0-3.43-1.84c-3.55,1.79-8.38,9.54-2.89,13.17,2.33,1.55,6.8-.86,9.22.53,4.51,3.55,1.16,6,.52,10.8l.53.53c2.67-.41,3.71-2.89,5.53-.79-3.72,3.1-10.51,10.42-11.59,11-2.9-3.24-16-19.53-14.11-20.62-3.16-21.69,27.36-32,36.51-44.88,4.58-6.45,6.6-14.06,9.4-21.35,1.38-3.58,3.44-6.79,4.91-10.29,1.28-3.07,4.31-4.37,7.22-5.75,6.93-3.29,14.24-7.57,18.29-14.27.54-.91,1.47-3.88,2.52-4.23s2.83,1.3,3.83,1.59A14.92,14.92,0,0,0,503,68.16c2-1.12,3-2.62,4.51-4.17,1-1,1.59-1.07,2.29-.64l-.25-.23c1.29.33,2.77,1.39,4.11.86-.8-2.81-4.26-5.93-7.28-5.09-2.18.61-4.38,2.36-6.38,3.49-1,.54-1.75,1.38-2.92,1.25-2.06-.21-3.84-2.38-5.4-3.51-1.38-1-3.23-1.29-4.52-2.24-3.72-2.76-.69-5,1.35-7.19,1.4-1.5,1.5-5.41.52-7.19-1.5-2.72-5.18-2.37-7.92-2.36-5.65,0-8.5,8.26-4.75,12.06,8.86,9-7.52,18.4-15,21.06-2.52.89-6.76,4.1-9.5,3-2.55-1-2.35-5.32-4.18-7.27-2.58-2.77-6.41-4-8.87-7s-4.6-6-6.77-9.21a56.69,56.69,0,0,1-3.83-7.38c-.39-.81-1.56-2.22-1.2-3.11s1.73-1,2.42-1.34c-1.47-.69-3.16-1.1-4.58-1.76-.63-.3-1.2-.8-1.9-1.08-1.23-.49-2.61-.6-3.81-1.13s-3.15-2-3.51.37c-.18,1.23,1.06,2.52,1.53,3.56.88,1.93,2.2,3.34,2.83,5.51.91,3.17,1.06,7.9-1.22,10.57-1.29,1.5-3.11,1.46-4.78,2.07-2.4.88-5.41,1.22-7.46,2.8s-3.36,5.44.43,4.29c1-.29,2-2.23,3.17-2.75C413.31,63,419,62.55,421,66.17c-2.77,2-6.09,3.67-8.17,6.51-.67.93-2.35,3.79-.44,3.75,1.53,0,3.19-2.39,4.16-3.36a9.07,9.07,0,0,1,7.52-2.79c1.4.1,2.91,1.21,4.26,1.82a12.62,12.62,0,0,0,3.94,1.52,13.42,13.42,0,0,1,3.75.66c2.77,1.26,4.48,4.29,5.11,7.2a6.94,6.94,0,0,1,0,3.11c-.59,2.23-1.09,4.39-1.5,6.69-.24,1.37-.06,2.9-.65,4.19a12.16,12.16,0,0,0-1.28,3,51.57,51.57,0,0,1-2.63,9.11c-2.43,6.12-6.24,12.93-12.3,16.1a86.8,86.8,0,0,0-11.39,7.6,42.64,42.64,0,0,0-9,9.23c-.34.48-3.52,6.45-3.8,6.78-.24-.35,1.24-6,1.29-6.38.18-1.35.26-2.72.33-4.08.24-4.82.35-9.59,4.35-13.09,2.42-2.11,4.59-4.64,7.36-6.31,2.54-1.54,6.24-.94,8.39-2.64,4.35-3.44-1-3.79-3.52-3a2.57,2.57,0,0,0,.8-3.07c-4,2.89-8.77,4.18-12.78,6.91-1.49,1-6,3.95-3.92-.11,1.16-2.22,1.86-1.58,1.83-4.66,0-3.32-1.34-5.45-4.39-5.37-4.7.12-9.32,4.2-6.46,8.7,1.32,2.09,3.86,2.12,1,3.6-2.13,1.1-4.41-.58-5.69-1.47-3-2.07-4.18-5.35-6.54-7.83.26,5.38-4,.49-6.5,2-3.56,2.21.92,4.74,2.91,5.72,3.85,1.92,4.33,3.39,6.6,7.3,2.58,4.46,3.6,6.86,2.9,12-.46,3.47-1,8-1.51,11.45-2.72.27-19.33-20.63-22.09-24.55,1.42-9.44,40.78-38.26,23.75-49.22a6.94,6.94,0,0,0-7.38.26Q376.19,79.48,373,85.4c-3.58,5.7-8.51,10.86-13,15.81a77.66,77.66,0,0,1-7.22,7.18c-3.77,3.18-5.18,6.82-8,10.82-6.47,9.18-14,15.75-17.9,26.5a83.59,83.59,0,0,0-4.77,30.35,78.2,78.2,0,0,0,5,26.47c1.15,2.95,6.52,16,10.88,15.75l-6.39.32c-10.18.5-16-13.36-19.31-20.93-2.15-5-3.4-10.72-6-15.45-3.15-5.76-9-10.16-14.41-13.58-7.26-4.58-16.09-5.32-23.15-10.36-5.65-4-10.4-10.16-13.64-16.23-1.53-2.86-3.84-9.61-.8-12.42,2.47-2.27,7.38.35,10.14.67,4.65.53,12,1.06,15.06-3.11,2.13-2.87,2.55-8.12.49-11-.21.43-.8.91-1,1.56a8.34,8.34,0,0,1-1.05-4.37c-1.89,6.78-2.85,10.13-10.77,10.05-5.5-.06-9.36-2.63-12.82-6.7-2.31-2.71-9.1-9.29-8.7-13,.32-3,3.33-3.84,3-7.59-.78-8.43-13.44-13.64-19-6.4-2.25,2.92-3.5,8-2.42,11.64,1.81,6.06,12.11,3.28,10.79,12.24-.34,2.32-2.29,4.2-2.83,6.5-.93,3.91.15,8.27.24,12.26a59.74,59.74,0,0,0-20.72-6.87c-9-1.06-25.81,3.87-31.06-5.93-2.07-3.86-3.06-10-3.4-14.3-.48-5.94.83-7.19,5.08-10-3.6,2.38-7.52,1.87-10.46,5.27-2.5,2.9-3.38,6.23-3.69,10-.56,6.8,2.31,14.79,8.06,18.82-4-.65-9.17,0-11.89.32A15.87,15.87,0,0,0,155,139.74c-2.69,7,.5,14.27,8.39,14.46,1.64,0,8.78-2.22,8.22-4.74-.37-1.68-2.76-.85-3.8-1.68-4.46-3.52-2-8.6,4.21-9.67,8.69-1.51,19-.1,27.88-.1,11.13,0,23.68-.76,33.53,5.38,9.67,6,17.21,16.91,25.6,24.59,5.33,4.89,11.86,7.11,18.54,9.56,3,1.09,7.26,2.38,9.89,4.24,5.52,3.91,8,12.19,10,18.24,1.19,3.54,2.3,7.11,3.73,10.55.92,2.23,6.17,8,5.32,10.18-.62,1.55-7.46,2.74-9.22,3.78-2.49,1.46-4.94,2.91-7.83,1.23,2,1.14.17-5.24.09-4.8.35-1.89,4.12-3.61,5.08-5.48a10.74,10.74,0,0,0,.65-7.09c-1.22-5.78-4.64-14.45-11.27-15.56-2.25-.37-7.5,1.19-4.69,4.25,1.19,1.28,2.94.26,4.23.86a8.78,8.78,0,0,1,3.28,3.43c1,1.74,2.72,5.83,2,8.06-1.22,3.74-5.72,1.25-8.11-.23-4.35-2.7-10.12-4.29-13.77-8-1.44-1.45-2.12-3.31-3.43-4.89-1.75-2.1-3.87-3.86-5.53-6.07-2.52-3.37-2.2-5.71-2.16-9.66a29.55,29.55,0,0,0-3.14,3A31.88,31.88,0,0,0,251,180c-3.54,3.79-5.74,3.4-10.43,5.12-2,.72-5.53.8-6.69,2.72-3.76,6.27,9.35,5.17,11.3,8.77,2.18,4,1.6,9.72,2,14.22.24,2.75,1.8,4.9,2.68,7.44,1.1,3.15-.15,5.25-1.63,8.2-.84,1.65-2.15,5.21-3.35,6.4-2.78,2.76-9.22,1.19-12.65,1s-9.13,1.46-9.28-3.47c-.14-4.39.32-8.9.06-13.33-.41-6.95-.05-13.75-2.59-20.44-2-5.4-6.4-9.8-10.7-13.57a38.74,38.74,0,0,0-13.12-7.46c-2.36-.75-8.46-2.08-6.45-5.88.74-1.41,3.5-2.35,4.56-3.57a8.08,8.08,0,0,0,1.87-5.16c.25-6.77-7.46-10.44-13.72-8.27-5.64,2-7,10.13-5.57,15.06.84,2.84,4.51,3.16,5.95,5.44,1.2,1.91.5,3.85.5,5.89a42,42,0,0,0,1.13,8c1.1,5.47,2.61,11.08,1.32,16.67-.94,4.06-6.23,5.75-6.66,9.2-.1.84,8.92-2.33,9.66-2.65,5.66-2.4,9.19-9.47,10-15.32,4.74,2.93,7.07,13.61,7.56,19,.39,4.16.53,8.5.68,12.7.09,2.3.75,6.93-.64,8.79-3.49,4.65-15.77,4.59-21,5-12.32,1-26.4-.5-35.09-10.53-2-2.27-2.59-6.12-2.81-9.08-.2-2.62,0-5.12-.84-7.65-.52-1.5-1.28-2.69-1.68-4.24-.65-2.49-1.89-8-.35-10.3.68-1,2.58-1.27,3.37-2.69a6.63,6.63,0,0,0,.64-3.91c-1.09-8.52-14.31-9.82-16.24-.93-1,4.74.26,5.39,3.38,7.84,7.71,6.08-3.76,11-5.68,16.22a20.49,20.49,0,0,0-.76,10.84c-7.18.43-6.89-4.72-11.15-9-3-3-6.1-5.62-3.25-9.78,2-2.92,7.17-3.46,8-6.72,1.08-4-3.17-10.08-7-10.13-3.33,0-7.56,2.26-8.91,5.35s-.14,4.08,1.39,6.59c2.46,4,2.08,7.87.35,12.26s-2,6.5-.18,11.08c2.33,6.06-2.56,4.24-6.47,4.15-6.08-.15-12.87,3.54-17.53,7.19a11.2,11.2,0,0,0-3.76,5.14c-.34.82-1.31,4.36-1.55,4.48,4.47-2.24,18.59-6.4,23.63-6.78,41.9-3.13,47,12.53,69.39,13.81,6.79.39,34.52-1,35.73-2.27.54,12.37.52,36.92,10.94,47.34,1,1-18.22-1.28-35.17-10.55-27.13-14.84-76.68-46-109.44-16.35-11.7,10.6-8.28,32.38-5,29.78C73.94,280,96.16,275,110.38,276.45c19.89,2,36.71,12.51,50.29,21.56,8,5.36,33.14,21.92,63,23.71-1.94,3.36-50,31.13-62.75,25.7-3.2-5.44-.14-7.74-.32-12.15,4.41-4.74,14.86-4,20.39-7.49.09-1,.17-1.93.26-2.9l-7.64-3.68c-7-1.53-8.77,3.77-14.49,4.47-10.34,1.28-17.91-6.66-26.87-3.95l-10.81,8.17L109,322.25c-7-4.29-15.65-4.69-23.42-5.63-.3-3,3.94-3.32,6-3.6,3.22-.44,6.4-.57,9.28-2.36,2.6-1.63,8.75-8.23,8.39-11.59-.25.3-.7.64-1,1,.15-.69,0-1.65.23-2.37-.3.35-1.27.8-1.56,1.11,0-.24,0-.45,0-.69-2.89,8.42-11.18,10.41-18.76,11.49-8.68,1.23-13.25,8.41-21,11a5,5,0,0,1-3.32.1c-2.05-.91-1.05-1.17-1.29-3-.34-2.49-.41-3.81-3.5-4.17a8.4,8.4,0,0,0-6.08,2c-5.5,5-1.4,14.83,5.51,15.74,2.82.38,6.46-.85,9,.29,4.23,1.89,5.14,9.55,6,13.37,1.43,6.68,2.08,13.29-.67,19.66-.5,1.15-1.48,4.18-2.55,4.9-.44.3-5.92.19-5.82.76a23.43,23.43,0,0,1,3.74.25c.21,2.74-1.53,4.91-1.26,7.49a20,20,0,0,1,1.31-2.11,34.26,34.26,0,0,0,.22,4.42,9.47,9.47,0,0,1,1.68-4.16,18.2,18.2,0,0,0,.41,2.12c3.93-5.07,7.27-12.24,9.53-18.29,1.86-5,1.09-11,1-16.25,0-2.18-1.36-5.27-.33-7.34,1.31-2.66,5.56-2.15,8.13-2a25.49,25.49,0,0,1,14.81,5.91c8,6.5,13.28,16.4,23.29,20.31,7.35,2.88,32.6,11.19,69-1.59-.26.09-2.23,2.19-2.8,2.65-3.29,2.67-6.76,5.13-10.25,7.52a247.45,247.45,0,0,1-36.4,20.75A168.2,168.2,0,0,1,116,400.74a121.32,121.32,0,0,1-28.56,3.44c-3,0-5.9-.37-8.91-.51a34.62,34.62,0,0,1-14.84-3.76,18.41,18.41,0,0,1-8.44-8.42c-2-3.69-1.4-5.71-1.35-9.41-3.65,1.08-5.82,6.08-5.44,9.53,1,8.65,8.7,16,16,19.67,25.1,12.61,56.21,6,81.34-3.6,21.3-8.15,40.78-20.55,58-35.37,24-20.57,41.06-46.23,79.56-52.43,2.9.61,71.66-9,86.42,71.4,6.32,49.79-9.77,127.8-11.59,134.1-.62,3.6-3.76,18.28-1.32,16.86,4.15-2.43,126-1.93,126.2-2.11-4.92-6.76-10.61-27.16-10-29.24-.08-4.83-12-140.61,114-131.36,72,5.29,73.51,59.18,126.31,58.91,12.07-.07,37.86-14.49,40.67-14.05,3.17.49,6,6.45,8,8.91,1,1.16,2.49,4.29,4,2.85.77-.73.36-4.47.22-5.34a19.35,19.35,0,0,0-4.67-9c2.91,1.22,4,5.9,7.7,5.57-1.45-3.49-4.4-6.75-6.09-10C765.83,417.92,768.29,414.51,769.53,412.62ZM571.65,183.33c.61-3,2.71-5.66,4.64-8,.51-.61,1-1.41,1.61-2.25,1.38-2,3-4.31,5.12-4.86l-.15-.6h1v.48a3.87,3.87,0,0,1,1,.09c2.54.57,4.26,6.23,4.82,8.52.83,3.43.24,7.27-.1,10.73-.51,5.28-.68,11.4-6.07,14.33-2.09,1.13-7.31,2.4-9.51,1-.69-.43-1.09-1.79-1.41-2.44-1.26-2.54-2.54-5.14-2.68-8S571.1,186.08,571.65,183.33ZM562,203.41a7.8,7.8,0,0,0,2.44-1.19c.51-.47,1-2.34,1.59-2.36,1.18,0,2.43,4.09,2.85,4.89,1.19,2.31,2.55,2.91,1.06,4.86-1.92,2.52-8.14,6.63-8.4,1.31C561.45,208.54,560.89,205.57,562,203.41ZM148.87,347.81a31,31,0,0,1-11.14-2.67c-2.06-1-9.76-4.81-10-7.47-.3-2.82,4.22-2.62,6.25-2.61,4.58,0,13.6.66,17,4.31l6.33,6.86c.08.34.17.68.26,1l-.14.16C156.4,348.58,150.22,347.9,148.87,347.81Zm8.64-.55v0C157.22,347.63,157.45,347.34,157.51,347.26ZM349.8,140c4.22.71,16.26,20.27,19.27,23.95,12.23,15,44.15,36.93,40.31,63.76-.35,3.42-.7,6.85-1.06,10.27-1.34.12-28.23-13.11-31.61-15.28q1.44-11.32,2.9-22.66c.45-3.51-5.24-6.68-7-9-3.17-4.12-1.09-8.73-3.32-12.82-.95-1.74-2.71-1.46-4.42-1.46-1.21,0-1.18.27-2.58-.26-.85-.32-1.68-1.35-2.71-1.68,1,2.11,3.71,3.31,4.48,5.28.27.71,0,2.4.26,3.29,1.23,4,2.54,5.66,1.15,9.93-1.3,4-3.35,7.66-2.7,12,.86,5.7,3.63,7,3.69,14l-.79.26C346,215.08,324.87,174.8,349.8,140Zm24,77.69v2.11l-1.32,1.58-3.42-.26-.79-.79c.69-1.62,1.84-2,3.16-2.9h1.84ZM254.14,230a26.66,26.66,0,0,0,2.78-5.48c1.14-2.61.47-6.1,2-8.41,3.06,2.78,5.05,8.83,10,9.2-2,.72-3.7,2.17-1.82,4.15-3.71.3-9.22-.77-12.91.54a7.12,7.12,0,0,1-.56.64l-.28-.28A7.86,7.86,0,0,1,254.14,230Zm118.78,82.29c-.09-.17-.18-.35-.29-.53-1.49-2.63-11.25-8.48-15.52-9.39-.26.21-.54.42-.84.62l-.71-.66a2.93,2.93,0,0,1,1.55,0c2.93-2.4,4.07-5.84,8.47-6.8a2.17,2.17,0,0,1,2.31.87c1.64.13,5.78,3,6.71,3.92C375.74,301.57,373.07,310.53,372.92,312.31Zm41.2-17.46c-.44,15.44-6.16,60.77-11.33,68h-1.05c-6.59-21.34-22.4-44-21.87-47.16.4-3.78,1.08-7.59.88-11.39-.13-2.37-.68-3.78.62-5.93,2-3.36,4.48-3.86,4.64-8.35.12-3.44-1.05-6.84.67-10.08,2-3.76,5.06-6.44,3.73-11.14-3.84-13.57-28.46-21.08-30.06-4.46,2.56,2.55,4.48-1,8.72-3.45,7.15-2.28,18.14,6,10.27,12.65-3.95,2.8-17.31,4.2-22.92,2.11l-8.43-5.8c-6.19-4.25-13.11,4.74-10.26,10.41,1.68,3.33,5,2,7.69,2.6,3.47.8,6.8,4.32,9.68,6.49.66,5.61-6.32,10.13-12.64,8.43-2.81-1.41-27.5-7.87-50.19-2.12-52.94,13.42-65.3-2.21-66.48-46.78h0c-.14.18-.06-.06,0-.28a1.93,1.93,0,0,1,0-.24c.13-.18.07,0,0,.24v.28c12.23-2,86.55-13,97.7-13.81C339.74,235.06,415.7,239.26,414.12,294.85Zm117.24-96.43c9.7,5.15,12.5,2.64,24,4.74l1.59,12.91c-1.12,3.16-11.2,8.73-15,7.91C539.46,219.71,531,202.51,531.36,198.42Zm-91.69-31.61c5.79-3.85,11.79-7.12,17.13-10.8l2.37.79.27.79c-.91,2-17.08,15.43-19.5,15.8A7.34,7.34,0,0,1,439.67,166.81Zm8.7,147.27c4.74-41.36-20-83.78-11.59-105.91,1.24-3.27,23.18-31.09,55.32-40,.62.09,38.82,55.74,35.83,65.34l-22.39,16.86c-4,3-7.53,6.49-11.35,9.64-2.89,2.38-7.35,6.54-10.64,7.85-2.12-2.59-1.79-5.94-.67-8.89,4.5.45,6.13-3.81,7.15-7.52,1.72-6.32,6.21-7.5,11-11.15a35,35,0,0,1,5.39-3.49c3.14-1.56,7.95-1.78,9.69-5.25a88,88,0,0,1-11.46,1.1,82.82,82.82,0,0,0,10.27-4.08c-3-1.23-7.16,1.1-10.15.2a33.8,33.8,0,0,0,4.55-2.26c-1.91,0-3.89.78-5.82.83a23.14,23.14,0,0,1,7.52-6.2c-1.65.36-3.32.08-4.94.37-3.12.55-6.28,2.29-9.14,3.55-4.73,2.11-12.15,7-17.24,6.77a51.07,51.07,0,0,1,1.94-11.2c1-4.21,3.33-10,2.47-14.4a3.71,3.71,0,0,1-.67-.07,13,13,0,0,0-.69-2.3c-.34.44-1.52.94-1.85,1.4-.39-1.7-1.64-2.21-2.56-.58-2.48-1-4.45-3-6.9-4.14a16.57,16.57,0,0,0,3.48,3.9,56.86,56.86,0,0,1-5.73-.26c2.87,2.24,7.63,2.84,9.51,6.13,2.7,4.71-.13,11.77-2.19,16.13-3.25,6.9-11,10.32-11.31,18.53a17.73,17.73,0,0,0,2.91,11.28c1.81,2.74,2.65,3.11,5.42,4.13,1.73.63,3.91,1,5.05,2.38,1.77,2.19,2.43,7.41,1.65,10.08-1.13,3.82-5.78,6.33-8.31,9.24q-6.78,7.8-12.83,16.2c-2.74,3.79-5.35,7.66-7.88,11.59C450.62,310.75,448.49,313,448.37,314.08ZM455.48,400c-13.7-70.08,75.57-139.24,79.3-142.27.27.05,1.28,24.17-9.74,54.66C514.32,342,491.84,374.52,455.48,400Zm197.8-15.1c-9.25-8.9-27.75-18.5-34.15-20.28,1-2.19,4.61-3.7,6.81-4.67,6.47,0,6.84,4.06,10.54,6.33l10.27,3.42C648.9,370.9,657.71,382,653.28,384.87Z"/><path class="cls-11" d="M552.39,130.52a10.58,10.58,0,0,1-1.54-1.83A4.16,4.16,0,0,0,552.39,130.52Z"/><path class="cls-12" d="M1911.84,61.58c2.42,1.68,1.46,4.22,1.46,6.39q.09,60.22,0,120.46c0,2.44.85,5.17-1.47,7.19Z"/><path class="cls-12" d="M1935.59,231.92c1.46-2.14,3.74-1.54,5.72-1.54q37.65,0,75.3.15c-.74,3.48-3.42,1.23-4.84,1.24C1986.38,232,1961,231.92,1935.59,231.92Z"/><path class="cls-12" d="M852.07,96H827.23V61h94.32V96h-25V195.3H852.07Z"/><path class="cls-12" d="M928.37,61h43V106.7h24.24V61h43V195.3h-43V145.56H971.39V195.3h-43Z"/><path class="cls-12" d="M1052.14,61h79.37V96.23h-36.35v14.9h35.74v33.43h-35.74v15.5h37.76V195.3h-80.78Z"/><path class="cls-12" d="M1185.36,61h79.37V96.23h-36.36v14.9l35.23-.52.57,33.83-35.62.52v50.75l-42.63.16Z"/><path class="cls-12" d="M1317.35,60.5V138c.08,12.41.84,13.29,2.53,16.51s6.3,4.83,10.07,4.83,8.39-1.61,10.07-4.83,2.53-6.16,2.53-16.51V60.5h43.34v87.4c0,7.39-1.38,16.06-4.14,22.23A46.3,46.3,0,0,1,1370.14,186a47,47,0,0,1-17.67,10.37c-4.92,1.47-14.31,2.4-22.52,2.4s-18.27-1.23-22.62-2.4c-7-1.9-12.76-5.94-17.67-10.37a46.69,46.69,0,0,1-11.51-15.91c-2.77-6.17-4.14-14.84-4.14-22.23V60.5Z"/><path class="cls-12" d="M1535.32,60.5V138c.07,12.41.84,13.29,2.52,16.51s6.3,4.83,10.07,4.83,8.39-1.61,10.07-4.83,2.53-6.16,2.53-16.51V60.5h43.34v87.4c0,7.39-1.38,16.06-4.14,22.23A46.3,46.3,0,0,1,1588.1,186a47,47,0,0,1-17.67,10.37c-4.92,1.47-14.31,2.4-22.52,2.4s-18.27-1.23-22.62-2.4c-7-1.9-12.76-5.94-17.67-10.37a46.82,46.82,0,0,1-11.51-15.91c-2.76-6.17-4.14-14.84-4.14-22.23V60.5Z"/><path class="cls-12" d="M1417.09,96.43h-25.15V60.5h95.3V96.43H1462v99.4h-44.9Z"/><path class="cls-12" d="M1959.36,266.13h-23.77v-36h85.61v36h-17.36V366.79h-44.48Z"/><path class="cls-12" d="M1617.2,61h47.66a76.06,76.06,0,0,1,22.62,3,53.52,53.52,0,0,1,17.37,9.06,52.72,52.72,0,0,1,14.44,18,49.57,49.57,0,0,1,5.35,22.25,49.05,49.05,0,0,1-2,13.9,41.66,41.66,0,0,1-5.66,12.08,18.84,18.84,0,0,1-2,2.72l-2.23,2.42c-.8.87-1.75,1.81-2.82,2.82s-2.5,2.25-4.24,3.72l25.24,44.9h-50.73l-20-33.62.44,34h-43Zm44.55,66.43h.63a46.35,46.35,0,0,0,6.55-.31,13.5,13.5,0,0,0,4.43-1.75,15,15,0,0,0,5.59-5.46,14.55,14.55,0,0,0,2-7.51,15.74,15.74,0,0,0-2-7.73,13.31,13.31,0,0,0-5.59-5.46,14,14,0,0,0-4.43-1.75,48,48,0,0,0-6.55-.31h-2.11v30.28Z"/><path class="cls-12" d="M1735.1,61.32h79.68V96.56h-36.36v14.91h35.75V144.9h-35.75v15.5h37.77l0,35.24h-81.09Z"/><path class="cls-12" d="M1867.19,61h45.64V195.3h-45.64Z"/><path class="cls-12" d="M834.21,230.31H880V366.5H834.21Z"/><path class="cls-12" d="M894,230.31H929.6l37.25,52.47V230.31h42.51V366.5H973.53l-37-52.28V366.5H894Z"/><path class="cls-12" d="M1080.59,265.83h-24.9V230.31h94.54v35.52h-25.1V366.5h-44.54Z"/><path class="cls-12" d="M1156.75,230.31h43.12v46.35h24.29V230.31h43.12V366.5h-43.12V316.06h-24.29V366.5h-43.12Z"/><path class="cls-12" d="M1279.85,230.31h79.56V266H1323v15.11h36.37V315H1323v15.72h37.86V366.5h-81Z"/><path class="cls-12" d="M1414.07,230.31h79.55V266h-36.44v15.11H1493V315h-35.84V366.5h-43.11Z"/><path class="cls-12" d="M1505.84,271.62a71,71,0,0,1,37.75-37.54,71.08,71.08,0,0,1,55.07,0,71,71,0,0,1,37.75,37.54,70.7,70.7,0,0,1,0,55,70.64,70.64,0,0,1-37.75,37.64,71,71,0,0,1-55.07,0,70.64,70.64,0,0,1-37.75-37.64,70.7,70.7,0,0,1,0-55ZM1545,310.18a28.4,28.4,0,0,0,15.08,15,28.54,28.54,0,0,0,22.07,0,28.4,28.4,0,0,0,15.08-15,28.25,28.25,0,0,0,0-22,28.31,28.31,0,0,0-15.08-15,28.54,28.54,0,0,0-22.07,0,28.31,28.31,0,0,0-15.08,15,28.25,28.25,0,0,0,0,22Z"/><path class="cls-12" d="M1652.33,231.09h47.78c8.63,0,16.19.74,22.67,2.77a53.6,53.6,0,0,1,17.41,9.14,53,53,0,0,1,14.47,18.17,50.91,50.91,0,0,1,5.18,22.7,49.86,49.86,0,0,1-2,14,41.88,41.88,0,0,1-5.49,12.18,18.39,18.39,0,0,1-2,2.74c-.68.74-1.42,1.56-2.23,2.43s-1.75,1.83-2.83,2.85-2,2-3.79,3.48l25.88,44.94H1716l-20.29-33.3v33.3h-43.35Zm44.42,65.6h.63a49.14,49.14,0,0,0,6.57-.29,14.18,14.18,0,0,0,4.45-1.64,14.62,14.62,0,0,0,5.61-5.11,12.9,12.9,0,0,0,2-7,12.23,12.23,0,0,0-2-7.23,12.86,12.86,0,0,0-5.61-5.11,14.43,14.43,0,0,0-4.45-1.64,49.14,49.14,0,0,0-6.57-.29h-2.12v28.35Z"/><path class="cls-12" d="M1770,230.55h79.37v35.32h-36.83l-.15,15.1h36.41v33.94l-35.68-.16v15.11h37.86v36.93h-81Z"/><path class="cls-12" d="M1993.35,122.39c-5.56-5.58-11.78-10.52-17.71-15.74-1.59-1.4-3.4-2.87-2.77-5.22.7-2.64,2.91-3.19,5.21-3.66,5.54-1.13,16.23.27,16.23.27l-.06-37.37s-8.57-1.81-23.41-2.18a102.9,102.9,0,0,0-10.82.24c-23.39,1.89-38.5,18.16-37.37,40.26.65,12.59,6.69,22.59,15.82,30.79,6.22,5.58,12.92,10.62,19.29,16.05,2.38,2,4,4.66,2.8,8s-4.08,4.1-7.3,4.27c-1.76.1-3.51.11-5.25.06l-1.14,0a100.62,100.62,0,0,1-16.15-2.44l-.91-.22-.21,0a47,47,0,0,1-6.54-2v40.89a66.3,66.3,0,0,0,11.48,2.65,127.59,127.59,0,0,0,37,1.37c21.28-2.57,34.43-16.33,36.41-37.52C2009.38,145.57,2003.86,132.93,1993.35,122.39Z"/><path class="cls-12" d="M1927.11,292.4c-5.57-5.61-11.78-10.58-17.71-15.83-1.6-1.41-3.4-2.89-2.77-5.26.7-2.65,2.9-3.21,5.2-3.68,5.54-1.13,16.24.27,16.24.27l-.06-37.59s-8.57-1.83-23.41-2.2a100.27,100.27,0,0,0-10.82.25c-23.39,1.89-38.51,18.26-37.37,40.5.65,12.66,6.69,22.73,15.82,31,6.22,5.62,12.92,10.69,19.29,16.14,2.38,2,4,4.7,2.79,8.06s-4.08,4.13-7.29,4.31c-1.76.09-3.51.1-5.26,0l-1.13,0a102.19,102.19,0,0,1-16.16-2.46l-.9-.22-.21-.05a45.21,45.21,0,0,1-6.54-2.05v41.14a65.4,65.4,0,0,0,11.48,2.67,126.56,126.56,0,0,0,37,1.38c21.28-2.58,34.43-16.43,36.41-37.75C1943.14,315.73,1937.62,303,1927.11,292.4Z"/><path class="cls-13" d="M853.36,516a38.66,38.66,0,0,1-15.06-14.66,43,43,0,0,1,0-42,38.6,38.6,0,0,1,15.12-14.65,47,47,0,0,1,38.16-2.3,34.33,34.33,0,0,1,12.88,8.73l-5.41,5.41Q889.63,447,875.26,447a35,35,0,0,0-17.36,4.37,31.9,31.9,0,0,0-12.24,12,34.89,34.89,0,0,0,0,34,31.88,31.88,0,0,0,12.24,11.95,34.87,34.87,0,0,0,17.36,4.37q14.47,0,23.79-9.66l5.41,5.41a34.84,34.84,0,0,1-12.94,8.79,44.45,44.45,0,0,1-16.61,3A43.85,43.85,0,0,1,853.36,516Z"/><path class="cls-13" d="M937.28,462.75q5.69-3.09,14.08-3.1v7.93l-2-.11q-9.55,0-14.95,5.86t-5.4,16.44v30.81H920.9V460.11h7.81V472A19.8,19.8,0,0,1,937.28,462.75Z"/><path class="cls-13" d="M1019.53,460.11,989.3,527.82q-3.69,8.5-8.51,12.07a19,19,0,0,1-11.61,3.57,23.62,23.62,0,0,1-8.16-1.38,17.71,17.71,0,0,1-6.56-4.14l3.8-6.1a15,15,0,0,0,11,4.6,11.06,11.06,0,0,0,7.07-2.3q2.94-2.29,5.46-7.81l2.65-5.87-27-60.35H966l22.76,51.39,22.76-51.39Z"/><path class="cls-13" d="M1077.58,463.5a27.61,27.61,0,0,1,10.81,10.86,34.86,34.86,0,0,1,0,32.08,27.65,27.65,0,0,1-10.75,10.86,30.92,30.92,0,0,1-15.46,3.85,28.6,28.6,0,0,1-13.28-3,25.12,25.12,0,0,1-9.71-8.91v33.68H1031V460.11h7.82v12a25.1,25.1,0,0,1,9.72-9.2,28.42,28.42,0,0,1,13.62-3.22A31,31,0,0,1,1077.58,463.5ZM1073.1,511a20.7,20.7,0,0,0,8.1-8.33,25.37,25.37,0,0,0,2.94-12.31,25,25,0,0,0-2.94-12.24,21.14,21.14,0,0,0-8.1-8.33,23.71,23.71,0,0,0-23,0,21.36,21.36,0,0,0-8,8.33,25.09,25.09,0,0,0-2.93,12.24,25.48,25.48,0,0,0,2.93,12.31,20.9,20.9,0,0,0,8,8.33,24.13,24.13,0,0,0,23,0Z"/><path class="cls-13" d="M1140.81,516.9a15.46,15.46,0,0,1-5.69,3.16,22.87,22.87,0,0,1-7.07,1.09q-8.5,0-13.11-4.59t-4.59-13V467h-10.81v-6.9h10.81V446.89h8.16v13.22h18.39V467h-18.39V503.1q0,5.41,2.7,8.22t7.76,2.82a15.17,15.17,0,0,0,4.88-.8,12.28,12.28,0,0,0,4.09-2.3Z"/><path class="cls-13" d="M1162.42,517.19a29,29,0,0,1-11-11,33.24,33.24,0,0,1,0-31.73,28.58,28.58,0,0,1,11-10.92,33.68,33.68,0,0,1,31.5,0,28.18,28.18,0,0,1,11,10.92,33.76,33.76,0,0,1,0,31.73,28.6,28.6,0,0,1-11,11,33.3,33.3,0,0,1-31.5,0Zm27.3-6.21a20.44,20.44,0,0,0,8-8.33,27.73,27.73,0,0,0,0-24.61,20.38,20.38,0,0,0-8-8.33,24.23,24.23,0,0,0-23.1,0,20.77,20.77,0,0,0-8,8.33,27.3,27.3,0,0,0,0,24.61,20.84,20.84,0,0,0,8,8.33,24.23,24.23,0,0,0,23.1,0Z"/><path class="cls-13" d="M1234.56,517.24a28.34,28.34,0,0,1-11.1-11,31.66,31.66,0,0,1-4-15.93,31.32,31.32,0,0,1,4-15.86,28.55,28.55,0,0,1,11.1-10.92,32.54,32.54,0,0,1,16-3.91,31,31,0,0,1,14,3.05,23.22,23.22,0,0,1,9.72,8.91l-6.1,4.13a19.08,19.08,0,0,0-7.58-6.72,22.45,22.45,0,0,0-10-2.24,23.65,23.65,0,0,0-11.79,2.93,20.52,20.52,0,0,0-8.16,8.33,27.41,27.41,0,0,0,0,24.66,20.65,20.65,0,0,0,8.16,8.28,23.76,23.76,0,0,0,11.79,2.93,23.11,23.11,0,0,0,10-2.18,18.66,18.66,0,0,0,7.58-6.67l6.1,4.14a23.17,23.17,0,0,1-9.77,8.91,31.18,31.18,0,0,1-13.91,3A32.54,32.54,0,0,1,1234.56,517.24Z"/><path class="cls-13" d="M1306.64,462.75q5.68-3.09,14.08-3.1v7.93l-2-.11q-9.54,0-14.94,5.86t-5.4,16.44v30.81h-8.17V460.11h7.82V472A19.8,19.8,0,0,1,1306.64,462.75Z"/><path class="cls-13" d="M1343.83,517.19a29,29,0,0,1-11-11,33.32,33.32,0,0,1,0-31.73,28.53,28.53,0,0,1,11-10.92,33.66,33.66,0,0,1,31.49,0,28.12,28.12,0,0,1,11,10.92,33.69,33.69,0,0,1,0,31.73,28.53,28.53,0,0,1-11,11,33.28,33.28,0,0,1-31.49,0Zm27.3-6.21a20.5,20.5,0,0,0,8-8.33,27.81,27.81,0,0,0,0-24.61,20.44,20.44,0,0,0-8-8.33,24.25,24.25,0,0,0-23.11,0,20.84,20.84,0,0,0-8,8.33,27.3,27.3,0,0,0,0,24.61,20.9,20.9,0,0,0,8,8.33,24.25,24.25,0,0,0,23.11,0Z"/><path class="cls-13" d="M1494,460.11l-22.87,60.47h-7.71L1444.3,471l-19.08,49.55h-7.7l-22.77-60.47h7.82l19,51.39L1441,460.11h7l19.31,51.39,19.2-51.39Z"/><path class="cls-13" d="M1559.72,435.28v85.3h-7.82v-12a24.79,24.79,0,0,1-9.71,9.31,28.45,28.45,0,0,1-13.62,3.22,30.65,30.65,0,0,1-15.41-3.91,27.89,27.89,0,0,1-10.81-10.92,34.69,34.69,0,0,1,0-32,27.61,27.61,0,0,1,10.81-10.86,31,31,0,0,1,15.41-3.85,28.57,28.57,0,0,1,13.27,3.05,25.15,25.15,0,0,1,9.72,8.91V435.28Zm-19,75.7a20.84,20.84,0,0,0,8-8.33,27.3,27.3,0,0,0,0-24.61,20.77,20.77,0,0,0-8-8.33,22.51,22.51,0,0,0-11.43-2.93,22.76,22.76,0,0,0-11.56,2.93,20.75,20.75,0,0,0-8,8.33,27.22,27.22,0,0,0,0,24.61,20.81,20.81,0,0,0,8,8.33,22.86,22.86,0,0,0,11.56,2.93A22.62,22.62,0,0,0,1540.69,511Z"/><path class="cls-13" d="M1594.49,444.48c-1.8,1.91-2.7,4.75-2.7,8.5v7.13h18.63V467H1592v53.57h-8.16V467h-10.81v-6.9h10.81v-7.47q0-8.28,4.77-13.11t13.51-4.83a22.91,22.91,0,0,1,6.67,1,15.06,15.06,0,0,1,5.4,2.82l-2.76,6.09a13.49,13.49,0,0,0-9-3C1599,441.6,1596.29,442.56,1594.49,444.48Z"/><path class="cls-13" d="M1675.94,460.11v60.47h-7.82v-11a22.31,22.31,0,0,1-8.85,8.57,26.63,26.63,0,0,1-12.87,3q-11.85,0-18.68-6.61t-6.84-19.37V460.11H1629v34.26q0,9.54,4.71,14.48t13.45,4.95q9.54,0,15.06-5.81t5.52-16.15V460.11Z"/><path class="cls-13" d="M1747.73,466.26q6.74,6.62,6.73,19.26v35.06h-8.16V486.32q0-9.42-4.72-14.37T1728.13,467q-9.77,0-15.46,5.8t-5.69,16v31.73h-8.16V460.11h7.81v11.15a22.72,22.72,0,0,1,9.26-8.56,29.6,29.6,0,0,1,13.74-3.05Q1741,459.65,1747.73,466.26Z"/><path class="cls-13" d="M1832.05,435.28v85.3h-7.81v-12a24.81,24.81,0,0,1-9.72,9.31,28.42,28.42,0,0,1-13.62,3.22,30.68,30.68,0,0,1-15.41-3.91,27.86,27.86,0,0,1-10.8-10.92,34.61,34.61,0,0,1,0-32,27.58,27.58,0,0,1,10.8-10.86,31.06,31.06,0,0,1,15.41-3.85,28.64,28.64,0,0,1,13.28,3.05,25.19,25.19,0,0,1,9.71,8.91V435.28ZM1813,511a20.81,20.81,0,0,0,8-8.33,27.22,27.22,0,0,0,0-24.61,20.75,20.75,0,0,0-8-8.33,24,24,0,0,0-23,0,20.71,20.71,0,0,0-8,8.33,27.3,27.3,0,0,0,0,24.61,20.77,20.77,0,0,0,8,8.33,24,24,0,0,0,23,0Z"/><path class="cls-13" d="M1854.7,445.17A5.64,5.64,0,0,1,1853,441a5.51,5.51,0,0,1,1.72-4,5.78,5.78,0,0,1,4.25-1.72,5.9,5.9,0,0,1,4.26,1.67,5.31,5.31,0,0,1,1.72,4,6,6,0,0,1-10.23,4.26Zm.11,14.94H1863v60.47h-8.17Z"/><path class="cls-13" d="M1934.65,466.26q6.74,6.62,6.73,19.26v35.06h-8.16V486.32q0-9.42-4.72-14.37T1915.05,467q-9.77,0-15.46,5.8t-5.69,16v31.73h-8.16V460.11h7.82v11.15a22.64,22.64,0,0,1,9.25-8.56,29.66,29.66,0,0,1,13.74-3.05Q1927.94,459.65,1934.65,466.26Z"/><path class="cls-13" d="M2019.78,460.11v53.11q0,15.4-7.53,22.82t-22.7,7.42a50.69,50.69,0,0,1-15.93-2.48,32.5,32.5,0,0,1-12.24-6.84l4.14-6.2a31.14,31.14,0,0,0,10.63,6.09,39.9,39.9,0,0,0,13.17,2.18q11.49,0,16.89-5.34t5.41-16.61v-7.71a24.55,24.55,0,0,1-9.95,8.74,30.78,30.78,0,0,1-13.62,3,32.14,32.14,0,0,1-15.46-3.74,27.55,27.55,0,0,1-10.92-10.46,29.35,29.35,0,0,1-4-15.23,29,29,0,0,1,4-15.17,27.32,27.32,0,0,1,10.86-10.35,32.49,32.49,0,0,1,15.52-3.68,30.81,30.81,0,0,1,13.91,3.1,25.06,25.06,0,0,1,10,9V460.11Zm-19.08,48.11a20.43,20.43,0,0,0,8.22-7.87,22.59,22.59,0,0,0,2.93-11.5,22.26,22.26,0,0,0-2.93-11.44,20.64,20.64,0,0,0-8.17-7.82,26.56,26.56,0,0,0-23.68,0,20,20,0,0,0-8.16,7.81,24,24,0,0,0,0,23,20.41,20.41,0,0,0,8.16,7.87,24.46,24.46,0,0,0,11.79,2.82A24.8,24.8,0,0,0,2000.7,508.22Z"/></g></g></svg>