<?xml version="1.0" encoding="UTF-8"?>
<!DOCTYPE svg PUBLIC "-//W3C//DTD SVG 1.1//EN" "http://www.w3.org/Graphics/SVG/1.1/DTD/svg11.dtd">
<!-- Creator: CorelDRAW 2019 (64-Bit) -->
<svg xmlns="http://www.w3.org/2000/svg" xml:space="preserve" width="2362px" height="1181px" version="1.1" style="shape-rendering:geometricPrecision; text-rendering:geometricPrecision; image-rendering:optimizeQuality; fill-rule:evenodd; clip-rule:evenodd"
viewBox="0 0 2362 1181"
 xmlns:xlink="http://www.w3.org/1999/xlink">
 <defs>
  <style type="text/css">
   <![CDATA[
    .fil2 {fill:#F8652F}
    .fil1 {fill:#F8652F;fill-rule:nonzero}
    .fil0 {fill:white;fill-rule:nonzero}
   ]]>
  </style>
 </defs>
 <g id="Capa_x0020_1">
  <metadata id="CorelCorpID_0Corel-Layer"/>
  <g id="_1446534791856">
   <g>
    <path class="fil0" d="M176.85 796.06c-5.4,-10.54 -12.83,-18.56 -22.29,-24.07 -9.45,-5.5 -20.48,-8.26 -33.09,-8.26 -13.96,0 -26.34,3.35 -37.14,10.06 -10.81,6.7 -19.25,16.28 -25.33,28.73 -6.08,12.46 -9.12,26.82 -9.12,43.1 0,16.77 3.1,31.37 9.29,43.82 6.19,12.46 14.8,22.03 25.83,28.74 11.03,6.7 23.86,10.06 38.5,10.06 18.01,0 32.75,-5.09 44.23,-15.27 11.48,-10.18 19.02,-24.36 22.62,-42.56l-81.04 0 0 -38.43 127.64 0 0 43.82c-3.15,17.48 -9.9,33.64 -20.26,48.48 -10.35,14.85 -23.69,26.76 -40.01,35.74 -16.32,8.98 -34.61,13.47 -54.87,13.47 -22.74,0 -43.28,-5.45 -61.63,-16.34 -18.34,-10.9 -32.75,-26.04 -43.22,-45.44 -10.47,-19.39 -15.7,-41.42 -15.7,-66.09 0,-24.66 5.23,-46.75 15.7,-66.26 10.47,-19.52 24.88,-34.72 43.22,-45.62 18.35,-10.89 38.78,-16.34 61.29,-16.34 26.56,0 49.64,6.88 69.22,20.65 19.59,13.77 33.09,33.11 40.52,58.01l-54.36 0z"/>
    <path id="1" class="fil0" d="M296.04 748.65c-8.32,0 -15.25,-2.82 -20.76,-8.44 -5.52,-5.63 -8.27,-12.64 -8.27,-21.02 0,-8.38 2.75,-15.38 8.27,-21.01 5.51,-5.63 12.44,-8.44 20.76,-8.44 8.33,0 15.26,2.81 20.77,8.44 5.52,5.63 8.27,12.63 8.27,21.01 0,8.38 -2.75,15.39 -8.27,21.02 -5.51,5.62 -12.44,8.44 -20.77,8.44zm23.3 23.7l0 198.99 -47.27 0 0 -198.99 47.27 0z"/>
    <polygon id="2" class="fil0" points="443.94,925 491.22,772.35 541.53,772.35 472.31,971.34 414.9,971.34 346.02,772.35 396.67,772.35 "/>
    <path id="3" class="fil0" d="M742.1 867.53c0,7.19 -0.45,13.65 -1.35,19.4l-136.75 0c1.12,14.37 5.85,25.62 14.18,33.76 8.33,8.14 18.57,12.21 30.73,12.21 17.56,0 30.05,-8.02 37.48,-24.06l50.99 0c-5.41,19.16 -15.76,34.9 -31.07,47.23 -15.31,12.33 -34.1,18.5 -56.39,18.5 -18.01,0 -34.16,-4.25 -48.45,-12.75 -14.3,-8.5 -25.44,-20.53 -33.43,-36.1 -8,-15.56 -11.99,-33.52 -11.99,-53.88 0,-20.59 3.94,-38.67 11.82,-54.23 7.88,-15.57 18.91,-27.54 33.09,-35.92 14.18,-8.38 30.5,-12.57 48.96,-12.57 17.78,0 33.71,4.07 47.78,12.21 14.07,8.14 24.99,19.7 32.75,34.66 7.77,14.97 11.65,32.15 11.65,51.54zm-48.96 -14.36c-0.22,-12.93 -4.61,-23.29 -13.17,-31.07 -8.55,-7.78 -19.02,-11.68 -31.4,-11.68 -11.71,0 -21.55,3.78 -29.55,11.32 -7.99,7.54 -12.88,18.02 -14.68,31.43l88.8 0z"/>
    <path id="4" class="fil0" d="M942.68 813.66l-32.75 0 0 157.68 -47.95 0 0 -157.68 -21.28 0 0 -41.31 21.28 0 0 -10.05c0,-24.43 6.53,-42.39 19.58,-53.88 13.06,-11.5 32.75,-16.88 59.09,-16.17l0 42.39c-11.48,-0.24 -19.47,1.79 -23.97,6.1 -4.5,4.31 -6.75,12.1 -6.75,23.35l0 8.26 32.75 0 0 41.31z"/>
    <path id="5" class="fil0" d="M1056.47 974.57c-18.01,0 -34.21,-4.25 -48.62,-12.75 -14.41,-8.5 -25.72,-20.53 -33.94,-36.1 -8.21,-15.56 -12.32,-33.52 -12.32,-53.88 0,-20.35 4.22,-38.31 12.66,-53.87 8.44,-15.57 19.98,-27.6 34.61,-36.1 14.63,-8.5 30.95,-12.75 48.96,-12.75 18.01,0 34.33,4.25 48.97,12.75 14.63,8.5 26.16,20.53 34.61,36.1 8.44,15.56 12.66,33.52 12.66,53.87 0,20.36 -4.33,38.32 -13,53.88 -8.67,15.57 -20.37,27.6 -35.12,36.1 -14.74,8.5 -31.23,12.75 -49.47,12.75zm0 -43.82c8.56,0 16.6,-2.21 24.15,-6.64 7.54,-4.43 13.56,-11.08 18.06,-19.94 4.5,-8.86 6.75,-19.63 6.75,-32.33 0,-18.91 -4.67,-33.46 -14.01,-43.64 -9.34,-10.17 -20.76,-15.26 -34.27,-15.26 -13.51,0 -24.82,5.09 -33.94,15.26 -9.11,10.18 -13.67,24.73 -13.67,43.64 0,18.92 4.44,33.47 13.33,43.65 8.9,10.17 20.1,15.26 33.6,15.26z"/>
    <path id="6" class="fil0" d="M1236.11 803.24c6.08,-10.53 14.02,-18.8 23.81,-24.78 9.79,-5.99 20.99,-8.98 33.6,-8.98l0 52.8 -12.5 0c-14.85,0 -26.05,3.71 -33.59,11.13 -7.55,7.43 -11.32,20.36 -11.32,38.79l0 99.14 -47.27 0 0 -198.99 47.27 0 0 30.89z"/>
    <path id="7" class="fil0" d="M1491.39 813.66l-32.75 0 0 157.68 -47.95 0 0 -157.68 -21.28 0 0 -41.31 21.28 0 0 -10.05c0,-24.43 6.53,-42.39 19.58,-53.88 13.06,-11.5 32.76,-16.88 59.1,-16.17l0 42.39c-11.49,-0.24 -19.48,1.79 -23.98,6.1 -4.5,4.31 -6.75,12.1 -6.75,23.35l0 8.26 32.75 0 0 41.31z"/>
    <path id="8" class="fil0" d="M1605.18 974.57c-18,0 -34.21,-4.25 -48.62,-12.75 -14.41,-8.5 -25.72,-20.53 -33.94,-36.1 -8.21,-15.56 -12.32,-33.52 -12.32,-53.88 0,-20.35 4.22,-38.31 12.66,-53.87 8.44,-15.57 19.98,-27.6 34.61,-36.1 14.64,-8.5 30.96,-12.75 48.97,-12.75 18,0 34.32,4.25 48.96,12.75 14.63,8.5 26.17,20.53 34.61,36.1 8.44,15.56 12.66,33.52 12.66,53.87 0,20.36 -4.33,38.32 -13,53.88 -8.67,15.57 -20.37,27.6 -35.12,36.1 -14.74,8.5 -31.23,12.75 -49.47,12.75zm0 -43.82c8.56,0 16.61,-2.21 24.15,-6.64 7.54,-4.43 13.56,-11.08 18.06,-19.94 4.51,-8.86 6.76,-19.63 6.76,-32.33 0,-18.91 -4.68,-33.46 -14.02,-43.64 -9.34,-10.17 -20.76,-15.26 -34.27,-15.26 -13.51,0 -24.82,5.09 -33.94,15.26 -9.11,10.18 -13.67,24.73 -13.67,43.64 0,18.92 4.44,33.47 13.34,43.65 8.89,10.17 20.09,15.26 33.59,15.26z"/>
    <path id="9" class="fil0" d="M1784.82 803.24c6.08,-10.53 14.02,-18.8 23.81,-24.78 9.79,-5.99 20.99,-8.98 33.6,-8.98l0 52.8 -12.5 0c-14.85,0 -26.05,3.71 -33.59,11.13 -7.55,7.43 -11.32,20.36 -11.32,38.79l0 99.14 -47.27 0 0 -198.99 47.27 0 0 30.89z"/>
    <path id="10" class="fil0" d="M2047.87 867.53c0,7.19 -0.45,13.65 -1.35,19.4l-136.76 0c1.13,14.37 5.86,25.62 14.18,33.76 8.33,8.14 18.58,12.21 30.73,12.21 17.56,0 30.05,-8.02 37.48,-24.06l50.99 0c-5.4,19.16 -15.76,34.9 -31.06,47.23 -15.31,12.33 -34.11,18.5 -56.39,18.5 -18.02,0 -34.17,-4.25 -48.46,-12.75 -14.3,-8.5 -25.44,-20.53 -33.43,-36.1 -7.99,-15.56 -11.99,-33.52 -11.99,-53.88 0,-20.59 3.94,-38.67 11.82,-54.23 7.88,-15.57 18.91,-27.54 33.09,-35.92 14.18,-8.38 30.51,-12.57 48.97,-12.57 17.78,0 33.7,4.07 47.77,12.21 14.07,8.14 24.99,19.7 32.76,34.66 7.77,14.97 11.65,32.15 11.65,51.54zm-48.96 -14.36c-0.23,-12.93 -4.62,-23.29 -13.17,-31.07 -8.56,-7.78 -19.02,-11.68 -31.41,-11.68 -11.7,0 -21.55,3.78 -29.54,11.32 -7.99,7.54 -12.89,18.02 -14.69,31.43l88.81 0z"/>
    <path id="11" class="fil0" d="M2153.9 974.57c-15.31,0 -29.04,-2.93 -41.2,-8.8 -12.16,-5.87 -21.78,-13.83 -28.87,-23.89 -7.09,-10.05 -10.97,-21.19 -11.65,-33.4l47.61 0c0.9,7.66 4.45,14.01 10.64,19.04 6.19,5.03 13.9,7.54 23.13,7.54 9,0 16.04,-1.92 21.1,-5.75 5.07,-3.83 7.6,-8.74 7.6,-14.72 0,-6.47 -3.1,-11.32 -9.29,-14.55 -6.19,-3.23 -16.04,-6.76 -29.54,-10.6 -13.96,-3.59 -25.38,-7.3 -34.28,-11.13 -8.89,-3.83 -16.54,-9.7 -22.96,-17.6 -6.41,-7.9 -9.62,-18.56 -9.62,-31.97 0,-11.01 2.98,-21.07 8.95,-30.17 5.96,-9.1 14.52,-16.28 25.66,-21.55 11.14,-5.27 24.26,-7.9 39.34,-7.9 22.28,0 40.07,5.93 53.35,17.78 13.28,11.85 20.6,27.84 21.95,47.95l-45.25 0c-0.67,-7.9 -3.77,-14.19 -9.28,-18.86 -5.52,-4.67 -12.89,-7 -22.12,-7 -8.56,0 -15.14,1.67 -19.75,5.03 -4.62,3.35 -6.93,8.02 -6.93,14.01 0,6.7 3.15,11.79 9.46,15.26 6.3,3.47 16.09,7 29.38,10.6 13.5,3.59 24.64,7.3 33.42,11.13 8.78,3.83 16.38,9.76 22.8,17.78 6.41,8.02 9.73,18.62 9.96,31.79 0,11.49 -2.98,21.79 -8.95,30.89 -5.97,9.1 -14.52,16.22 -25.66,21.37 -11.15,5.15 -24.15,7.72 -39,7.72z"/>
    <path id="12" class="fil0" d="M2321.38 813.66l0 96.26c0,6.7 1.52,11.55 4.56,14.54 3.04,3 8.16,4.49 15.36,4.49l21.95 0 0 42.39 -29.71 0c-39.85,0 -59.77,-20.6 -59.77,-61.78l0 -95.9 -22.29 0 0 -41.31 22.29 0 0 -49.21 47.61 0 0 49.21 41.87 0 0 41.31 -41.87 0z"/>
   </g>
   <g>
    <path class="fil1" d="M619.49 1121.82l12.62 1.72c-3.98,10.96 -9.78,19.24 -17.42,24.85 -7.62,5.61 -16.16,8.42 -25.66,8.42 -11.56,0 -20.74,-3.52 -27.52,-10.54 -6.77,-7.05 -10.16,-17.12 -10.16,-30.22 0,-17.07 5.16,-31.21 15.45,-42.38 9.17,-9.96 20.57,-14.93 34.19,-14.93 10.09,0 18.26,2.69 24.5,8.08 6.25,5.39 9.88,12.63 10.87,21.73l-11.82 1.07c-1.31,-6.85 -3.92,-11.96 -7.84,-15.33 -3.91,-3.38 -8.96,-5.08 -15.14,-5.08 -11.64,0 -21.07,5.14 -28.25,15.46 -6.22,8.9 -9.34,19.44 -9.34,31.65 0,9.74 2.41,17.18 7.22,22.31 4.8,5.14 11.07,7.71 18.79,7.71 6.58,0 12.56,-2.15 17.87,-6.41 5.33,-4.26 9.21,-10.31 11.64,-18.11z"/>
    <path id="1" class="fil1" d="M639.71 1155.22l14.34 -68.79 10.47 0 -2.96 14.07c3.58,-5.27 7.06,-9.18 10.47,-11.72 3.39,-2.54 6.86,-3.8 10.4,-3.8 2.33,0 5.21,0.84 8.62,2.51l-4.79 10.87c-2.03,-1.5 -4.27,-2.25 -6.68,-2.25 -4.12,0 -8.35,2.3 -12.69,6.87 -4.34,4.57 -7.77,12.79 -10.27,24.67l-5.76 27.57 -11.15 0z"/>
    <path id="2" class="fil1" d="M679.42 1181.68l0.67 -11.07c2.43,0.69 4.78,1.04 7.08,1.04 2.39,0 4.32,-0.53 5.8,-1.61 1.91,-1.42 3.99,-4.09 6.24,-8l3.77 -6.69 -11.47 -68.92 11.56 0 5.18 34.59c1.04,6.83 1.92,13.65 2.65,20.48l30.82 -55.07 12.16 0 -43.88 77.8c-4.23,7.6 -8,12.65 -11.27,15.11 -3.28,2.47 -7.06,3.71 -11.34,3.71 -2.72,0 -5.38,-0.47 -7.97,-1.37z"/>
    <path id="3" class="fil1" d="M744.78 1181.59l19.92 -95.16 10.85 0 -1.99 9.63c4,-4.17 7.61,-7.06 10.8,-8.68 3.17,-1.61 6.53,-2.4 10.1,-2.4 6.57,0 12.02,2.38 16.36,7.13 4.31,4.77 6.48,11.57 6.48,20.45 0,7.14 -1.19,13.65 -3.58,19.53 -2.37,5.88 -5.29,10.6 -8.77,14.18 -3.48,3.58 -6.97,6.21 -10.54,7.89 -3.54,1.68 -7.19,2.51 -10.91,2.51 -8.28,0 -14.7,-4.19 -19.26,-12.59l-7.8 37.51 -11.66 0zm23.13 -54.43c0,5.13 0.38,8.66 1.11,10.63 1.08,2.8 2.88,5.06 5.33,6.76 2.48,1.72 5.36,2.58 8.62,2.58 6.75,0 12.22,-3.77 16.4,-11.35 4.16,-7.56 6.24,-15.29 6.24,-23.17 0,-5.81 -1.39,-10.29 -4.2,-13.47 -2.79,-3.16 -6.27,-4.75 -10.45,-4.75 -2.99,0 -5.76,0.79 -8.33,2.36 -2.56,1.57 -4.93,3.93 -7.13,7.07 -2.19,3.13 -4,6.96 -5.44,11.51 -1.42,4.52 -2.15,8.48 -2.15,11.83z"/>
    <path id="4" class="fil1" d="M851.55 1145.72l-1.95 9.58c-2.81,0.73 -5.53,1.11 -8.17,1.11 -4.67,0 -8.36,-1.15 -11.13,-3.45 -2.06,-1.72 -3.1,-4.08 -3.1,-7.07 0,-1.5 0.55,-4.99 1.68,-10.42l8.37 -40.02 -9.3 0 1.86 -9.02 9.3 0 3.56 -16.85 13.44 -8.06 -5.31 24.91 11.56 0 -2 9.02 -11.42 0 -7.97 38.05c-1,4.84 -1.48,7.73 -1.48,8.68 0,1.4 0.39,2.46 1.19,3.19 0.8,0.72 2.1,1.1 3.92,1.1 2.59,0 4.91,-0.24 6.95,-0.75z"/>
    <path id="5" class="fil1" d="M863.13 1129.09c0,-13.39 3.96,-24.48 11.87,-33.27 6.53,-7.22 15.07,-10.84 25.68,-10.84 8.28,0 14.96,2.58 20.05,7.75 5.07,5.17 7.62,12.15 7.62,20.92 0,7.88 -1.59,15.22 -4.8,22 -3.19,6.78 -7.75,11.99 -13.64,15.59 -5.91,3.62 -12.11,5.43 -18.64,5.43 -5.36,0 -10.23,-1.14 -14.61,-3.42 -4.41,-2.27 -7.75,-5.52 -10.05,-9.7 -2.33,-4.17 -3.48,-8.99 -3.48,-14.46zm11.69 -1.15c0,6.47 1.57,11.37 4.69,14.71 3.12,3.33 7.11,5.01 11.94,5.01 2.52,0 5.02,-0.51 7.48,-1.52 2.48,-1.02 4.78,-2.54 6.91,-4.62 2.14,-2.07 3.96,-4.44 5.44,-7.09 1.51,-2.65 2.73,-5.5 3.63,-8.57 1.35,-4.26 2.02,-8.35 2.02,-12.28 0,-6.21 -1.57,-11.02 -4.72,-14.44 -3.16,-3.43 -7.13,-5.15 -11.91,-5.15 -3.7,0 -7.06,0.88 -10.09,2.63 -3.06,1.74 -5.81,4.28 -8.26,7.66 -2.46,3.36 -4.25,7.27 -5.4,11.73 -1.16,4.46 -1.73,8.44 -1.73,11.93z"/>
    <path id="6" class="fil1" d="M1047.64 1121.82l12.61 1.72c-3.98,10.96 -9.78,19.24 -17.42,24.85 -7.61,5.61 -16.16,8.42 -25.66,8.42 -11.55,0 -20.74,-3.52 -27.52,-10.54 -6.77,-7.05 -10.16,-17.12 -10.16,-30.22 0,-17.07 5.16,-31.21 15.45,-42.38 9.17,-9.96 20.57,-14.93 34.19,-14.93 10.09,0 18.26,2.69 24.51,8.08 6.24,5.39 9.87,12.63 10.87,21.73l-11.83 1.07c-1.3,-6.85 -3.92,-11.96 -7.83,-15.33 -3.92,-3.38 -8.97,-5.08 -15.15,-5.08 -11.64,0 -21.07,5.14 -28.25,15.46 -6.22,8.9 -9.34,19.44 -9.34,31.65 0,9.74 2.41,17.18 7.22,22.31 4.8,5.14 11.07,7.71 18.79,7.71 6.58,0 12.56,-2.15 17.87,-6.41 5.34,-4.26 9.21,-10.31 11.65,-18.11z"/>
    <path id="7" class="fil1" d="M1067.85 1155.22l14.34 -68.79 10.47 0 -2.96 14.07c3.58,-5.27 7.06,-9.18 10.47,-11.72 3.39,-2.54 6.86,-3.8 10.41,-3.8 2.32,0 5.2,0.84 8.61,2.51l-4.78 10.87c-2.04,-1.5 -4.28,-2.25 -6.69,-2.25 -4.12,0 -8.35,2.3 -12.69,6.87 -4.34,4.57 -7.77,12.79 -10.27,24.67l-5.75 27.57 -11.16 0z"/>
    <path id="8" class="fil1" d="M1114.07 1129.09c0,-13.39 3.97,-24.48 11.87,-33.27 6.53,-7.22 15.08,-10.84 25.68,-10.84 8.28,0 14.97,2.58 20.06,7.75 5.07,5.17 7.61,12.15 7.61,20.92 0,7.88 -1.59,15.22 -4.8,22 -3.19,6.78 -7.75,11.99 -13.64,15.59 -5.91,3.62 -12.11,5.43 -18.64,5.43 -5.36,0 -10.23,-1.14 -14.61,-3.42 -4.41,-2.27 -7.75,-5.52 -10.05,-9.7 -2.33,-4.17 -3.48,-8.99 -3.48,-14.46zm11.69 -1.15c0,6.47 1.58,11.37 4.7,14.71 3.12,3.33 7.1,5.01 11.93,5.01 2.52,0 5.02,-0.51 7.48,-1.52 2.48,-1.02 4.78,-2.54 6.91,-4.62 2.15,-2.07 3.96,-4.44 5.44,-7.09 1.51,-2.65 2.73,-5.5 3.64,-8.57 1.35,-4.26 2.01,-8.35 2.01,-12.28 0,-6.21 -1.57,-11.02 -4.71,-14.44 -3.17,-3.43 -7.13,-5.15 -11.92,-5.15 -3.69,0 -7.06,0.88 -10.09,2.63 -3.06,1.74 -5.8,4.28 -8.26,7.66 -2.46,3.36 -4.25,7.27 -5.4,11.73 -1.15,4.46 -1.73,8.44 -1.73,11.93z"/>
    <path id="9" class="fil1" d="M1198.98 1155.22l-7.18 -68.79 11.29 0 3.01 30.93 1.2 17.36c0.11,1.28 0.29,3.89 0.51,7.77 1.39,-4.33 2.52,-7.66 3.41,-10.02 0.86,-2.37 2.3,-5.75 4.29,-10.1l16.54 -35.94 12.75 0 2.19 34.42c0.38,5.21 0.6,12.17 0.71,20.85 2.13,-5.7 5.65,-13.7 10.54,-23.97l14.79 -31.3 11.82 0 -33.67 68.79 -12.35 0 -2.4 -40.34c-0.22,-2.49 -0.39,-7.37 -0.53,-14.66 -1.88,4.64 -4,9.65 -6.4,14.99l-18.17 40.01 -12.35 0z"/>
    <path id="10" class="fil1" d="M1328.2 1145.25c-6.71,7.62 -13.7,11.42 -20.99,11.42 -6.53,0 -11.95,-2.4 -16.29,-7.2 -4.34,-4.79 -6.51,-11.77 -6.51,-20.89 0,-8.35 1.72,-15.99 5.16,-22.91 3.43,-6.91 7.72,-12.08 12.88,-15.53 5.16,-3.44 10.34,-5.16 15.52,-5.16 8.55,0 15.01,4.11 19.37,12.32l7.77 -36.97 11.69 0 -19.79 94.89 -10.89 0 2.08 -9.97zm-32.1 -18.88c0,4.77 0.49,8.55 1.44,11.29 0.95,2.76 2.57,5.03 4.87,6.87 2.28,1.83 5.02,2.73 8.23,2.73 5.34,0 10.17,-2.76 14.48,-8.26 5.8,-7.29 8.7,-16.32 8.7,-27.05 0,-5.42 -1.41,-9.66 -4.27,-12.73 -2.86,-3.05 -6.47,-4.57 -10.78,-4.57 -2.81,0 -5.38,0.62 -7.71,1.88 -2.3,1.24 -4.6,3.36 -6.88,6.34 -2.26,2.98 -4.19,6.78 -5.74,11.37 -1.57,4.62 -2.34,8.66 -2.34,12.13z"/>
    <path id="11" class="fil1" d="M1356.96 1155.22l12.71 -59.77 -10.32 0 1.86 -9.02 10.4 0 2.02 -9.74c1.02,-4.88 2.08,-8.37 3.19,-10.53 1.1,-2.15 2.87,-3.93 5.35,-5.33 2.48,-1.39 5.87,-2.09 10.14,-2.09 2.99,0 7.31,0.61 12.98,1.87l-2.15 10.23c-3.96,-0.99 -7.31,-1.5 -9.99,-1.5 -2.28,0 -4.02,0.57 -5.22,1.7 -1.17,1.12 -2.21,3.82 -3.08,8.06l-1.55 7.33 13.24 0 -1.86 9.02 -13.33 0 -12.72 59.77 -11.67 0z"/>
    <path id="12" class="fil1" d="M1439.62 1142.78c-8.25,9.26 -16.73,13.89 -25.39,13.89 -5.31,0 -9.61,-1.5 -12.88,-4.52 -3.28,-3.03 -4.92,-6.74 -4.92,-11.11 0,-2.9 0.82,-7.85 2.41,-14.89l9.06 -39.72 11.8 0 -10.03 44.53c-0.84,3.71 -1.26,6.61 -1.26,8.66 0,2.37 0.79,4.22 2.41,5.52 1.6,1.33 3.96,1.99 7.09,1.99 3.34,0 6.59,-0.79 9.78,-2.38 3.19,-1.59 5.94,-3.74 8.24,-6.43 2.3,-2.7 4.18,-5.9 5.64,-9.59 0.95,-2.34 2.08,-6.47 3.35,-12.39l6.55 -29.91 11.66 0 -15.25 68.79 -10.85 0 2.59 -12.44z"/>
    <path id="13" class="fil1" d="M1466.41 1155.22l14.44 -68.79 10.71 0 -2.48 12.02c4.67,-4.68 9.04,-8.11 13.11,-10.25 4.07,-2.14 8.21,-3.22 12.46,-3.22 5.65,0 10.08,1.52 13.29,4.55 3.21,3.02 4.82,7.07 4.82,12.14 0,2.54 -0.6,6.54 -1.79,12.02l-9.32 41.53 -11.67 0 9.68 -43.5c0.95,-4.24 1.43,-7.35 1.43,-9.38 0,-2.28 -0.79,-4.13 -2.41,-5.55 -1.61,-1.43 -3.94,-2.14 -6.99,-2.14 -6.14,0 -11.58,2.14 -16.39,6.45 -4.78,4.31 -8.3,11.69 -10.53,22.13l-6.69 31.99 -11.67 0z"/>
    <path id="14" class="fil1" d="M1586.74 1145.25c-6.71,7.62 -13.71,11.42 -20.99,11.42 -6.53,0 -11.96,-2.4 -16.3,-7.2 -4.33,-4.79 -6.5,-11.77 -6.5,-20.89 0,-8.35 1.72,-15.99 5.15,-22.91 3.44,-6.91 7.73,-12.08 12.89,-15.53 5.16,-3.44 10.34,-5.16 15.52,-5.16 8.54,0 15.01,4.11 19.37,12.32l7.77 -36.97 11.69 0 -19.79 94.89 -10.89 0 2.08 -9.97zm-32.1 -18.88c0,4.77 0.48,8.55 1.43,11.29 0.96,2.76 2.57,5.03 4.87,6.87 2.28,1.83 5.03,2.73 8.24,2.73 5.34,0 10.16,-2.76 14.48,-8.26 5.8,-7.29 8.7,-16.32 8.7,-27.05 0,-5.42 -1.42,-9.66 -4.27,-12.73 -2.86,-3.05 -6.47,-4.57 -10.79,-4.57 -2.81,0 -5.37,0.62 -7.7,1.88 -2.3,1.24 -4.6,3.36 -6.88,6.34 -2.26,2.98 -4.19,6.78 -5.74,11.37 -1.57,4.62 -2.34,8.66 -2.34,12.13z"/>
    <path id="15" class="fil1" d="M1631.17 1073.58l2.79 -13.25 11.67 0 -2.79 13.25 -11.67 0zm-17.14 81.64l14.44 -68.79 11.67 0 -14.44 68.79 -11.67 0z"/>
    <path id="16" class="fil1" d="M1643.68 1155.22l14.43 -68.79 10.72 0 -2.48 12.02c4.67,-4.68 9.03,-8.11 13.1,-10.25 4.08,-2.14 8.22,-3.22 12.47,-3.22 5.64,0 10.07,1.52 13.28,4.55 3.21,3.02 4.83,7.07 4.83,12.14 0,2.54 -0.6,6.54 -1.79,12.02l-9.33 41.53 -11.66 0 9.67 -43.5c0.95,-4.24 1.44,-7.35 1.44,-9.38 0,-2.28 -0.8,-4.13 -2.41,-5.55 -1.62,-1.43 -3.94,-2.14 -7,-2.14 -6.13,0 -11.58,2.14 -16.38,6.45 -4.78,4.31 -8.3,11.69 -10.54,22.13l-6.68 31.99 -11.67 0z"/>
    <path id="17" class="fil1" d="M1716.89 1161.45l11.96 1.06c-0.09,2.69 0.24,4.7 0.97,6.05 0.73,1.34 1.9,2.38 3.5,3.11 2.1,0.95 4.85,1.44 8.21,1.44 7.08,0 12.18,-1.84 15.28,-5.5 2.03,-2.48 3.92,-7.82 5.64,-16.06l1.18 -5.57c-6.09,6.17 -12.58,9.24 -19.46,9.24 -6.96,0 -12.78,-2.57 -17.45,-7.67 -4.69,-5.1 -7.04,-12.35 -7.04,-21.69 0,-7.73 1.84,-14.82 5.53,-21.29 3.7,-6.47 8.08,-11.35 13.18,-14.65 5.09,-3.29 10.34,-4.94 15.74,-4.94 9.01,0 15.96,4.19 20.85,12.61l2.42 -11.16 10.87 0 -14.02 66.4c-1.5,7.31 -3.5,12.99 -5.95,17.07 -2.48,4.09 -5.89,7.27 -10.28,9.5 -4.38,2.26 -9.45,3.38 -15.21,3.38 -5.53,0 -10.29,-0.7 -14.3,-2.14 -3.98,-1.41 -6.97,-3.51 -8.94,-6.25 -1.97,-2.76 -2.95,-5.9 -2.95,-9.43 0,-1.08 0.09,-2.26 0.27,-3.51zm14.74 -36.63c0,4.71 0.47,8.24 1.38,10.63 1.28,3.31 3.14,5.85 5.55,7.6 2.39,1.74 5.07,2.62 8.02,2.62 3.87,0 7.7,-1.34 11.51,-4.04 3.83,-2.69 6.91,-6.87 9.28,-12.52 2.34,-5.66 3.54,-11.05 3.54,-16.19 0,-5.66 -1.57,-10.16 -4.72,-13.52 -3.14,-3.34 -7.04,-5.01 -11.66,-5.01 -2.86,0 -5.65,0.77 -8.33,2.29 -2.7,1.53 -5.2,3.87 -7.5,7 -2.33,3.12 -4.08,6.87 -5.27,11.23 -1.2,4.37 -1.8,7.66 -1.8,9.91z"/>
   </g>
   <path class="fil2" d="M1319.06 263.55c52.76,-157.48 29.46,-207.43 11.08,-231.55 -18.39,-24.11 -56.91,-44.04 -118.78,-16.93 -203.34,102.3 -234.67,399.55 -239.14,512.17 -1.16,29.24 19.81,54.14 47.35,56.38 37.56,3.05 94.3,-3.72 169.2,-40.53 122.06,-60.01 143.62,-85.58 146.21,-139.88 2.77,-57.9 -35.73,-86.33 -15.92,-139.66l0 0zm2.81 -169.23c6.88,1.61 11.48,8.63 7.16,19.86 -5.5,14.3 -58.73,60.72 -68.02,53.98 -9.28,-6.72 -0.61,-23.29 10.29,-38.41 27.18,-37.7 46.32,-36.43 50.57,-35.43zm-33.22 -54.14c7.05,-0.21 12.5,6.86 9.68,18.61 -3.58,14.97 -50.19,68.74 -60.29,63.45 -10.08,-5.29 -2.57,-20.3 4.82,-37.67 7.92,-18.69 30.31,-43.91 45.79,-44.39l0 0zm-85.01 24.02c16.32,-30.76 31.68,-39.77 42.58,-39.84 6.62,-0.05 11.71,6.44 9.08,17.44 -3.36,14.02 -47.06,64.43 -56.5,59.47 -9.45,-4.97 -3.4,-21.53 4.84,-37.07zm-114.74 406.96c-21.19,21.95 -42.69,41.23 -58.09,42.09l0.11 0.83c-4.08,0.46 -10.39,-1.37 -12.99,-4.46 -13.8,-16.58 -11.12,-44.9 -4.79,-93.43 7.87,-60.3 28.56,-126.71 48.41,-174.86 6.47,-15.73 14.15,-30.86 22.98,-45.23 22.39,-36.31 67.63,-79.52 102.34,-60.3 -0.29,0.11 -0.59,0.28 -0.87,0.39 0.04,0 0.06,0 0.11,0 35.24,18.66 61.24,63.79 8.63,170.16 -48.88,98.83 -55.88,113.1 -105.84,164.81l0 0zm214.78 -88.83c-0.91,13.82 -6.78,26.7 -15.93,36.61 -18.99,20.63 -62.47,60.98 -116.16,66.96 -0.21,0.02 -0.43,0.05 -0.65,0.07 -18.97,1.82 -31.82,-20.05 -22.11,-37.4 21.48,-38.45 66,-107.03 112.51,-107.07 37.3,-0.02 43.58,22.29 42.34,40.83zm-0.5 -117.61c-10.45,11.32 -31.46,34.23 -59.81,36.87 -10.97,1.01 -16.69,-7.12 -12.68,-17.97 11.46,-31.04 29.56,-75.76 55.39,-75.78 19.22,-0.03 26.02,24.55 26.02,34.32 -0.02,8.43 -3.33,16.51 -8.92,22.56l0 0z"/>
  </g>
 </g>
</svg>
