<svg width="107" height="106" viewBox="0 0 107 106" fill="none" xmlns="http://www.w3.org/2000/svg">
<path d="M53.4999 0C32.4286 0 15.2856 17.0813 15.2856 38.0769C15.2856 59.0725 32.4286 76.1538 53.4999 76.1538C74.5713 76.1538 91.7142 59.0725 91.7142 38.0769C91.7142 17.0813 74.5713 0 53.4999 0ZM53.4999 7.61538C70.3563 7.61538 84.0714 21.2812 84.0714 38.0769C84.0714 54.8727 70.3563 68.5385 53.4999 68.5385C36.6436 68.5385 22.9285 54.8727 22.9285 38.0769C22.9285 21.2812 36.6436 7.61538 53.4999 7.61538ZM49.6785 15.2308V19.7619C46.9231 20.7601 44.6415 22.7483 43.2814 25.3364C42.097 27.6149 41.7405 30.2317 42.2726 32.7423C42.7428 34.9267 43.8331 36.9304 45.4138 38.5148C46.457 39.5543 47.699 40.3958 49.0671 40.9784C50.4351 41.561 51.9331 41.8846 53.4999 41.8846C54.0426 41.8846 54.5546 41.9874 55.0132 42.174C55.4672 42.358 55.8795 42.6307 56.2261 42.976C56.5726 43.3213 56.8463 43.7322 57.0309 44.1845C57.2182 44.6414 57.3214 45.1516 57.3214 45.6923C57.338 46.4424 57.1264 47.1799 56.7145 47.8078C56.3025 48.4358 55.7094 48.9248 55.0132 49.2106C54.5546 49.3972 54.0426 49.5 53.4999 49.5C52.9535 49.5 52.4452 49.3972 51.9866 49.2106C51.5331 49.026 51.1212 48.7528 50.7752 48.4072C50.4211 48.0496 50.1417 47.6255 49.9535 47.1594C49.7652 46.6933 49.6717 46.1947 49.6785 45.6923H42.0356C42.0361 48.6549 43.2135 51.4969 45.3106 53.5971C46.5378 54.8442 48.0305 55.8006 49.6785 56.3957V60.9231H57.3214V56.3919C59.2482 55.7037 60.957 54.5179 62.2731 52.9557C63.5891 51.3935 64.465 49.5111 64.8114 47.501C65.2833 44.6456 64.6288 41.719 62.9847 39.3335C62.1554 38.117 61.1025 37.068 59.8817 36.2416C58.6442 35.4049 57.2556 34.8153 55.7928 34.5053C55.0386 34.3485 54.2703 34.2694 53.4999 34.2692C52.9535 34.2692 52.4452 34.1664 51.9866 33.9798C51.5327 33.7958 51.1203 33.5231 50.7738 33.1779C50.4273 32.8326 50.1536 32.4217 49.9689 31.9694C49.7747 31.4903 49.6761 30.9782 49.6785 30.4615C49.6785 29.917 49.7817 29.4106 49.9689 28.9537C50.1536 28.5014 50.4273 28.0905 50.7738 27.7452C51.1203 27.3999 51.5327 27.1272 51.9866 26.9432C52.4452 26.7567 52.9573 26.6538 53.4999 26.6538C55.6781 26.6538 57.3214 28.2912 57.3214 30.4615H64.9642C64.9652 29.2662 64.7742 28.0785 64.3986 26.9432C63.8361 25.2934 62.9078 23.791 61.6825 22.5478C60.4573 21.3045 58.9666 20.3523 57.3214 19.7619V15.2308H49.6785Z" fill="white"/>
<path d="M0 105.462V75H19.4129C22.0086 77.8977 24.9618 80.4564 28.2021 82.6154H7.64286V105.462H0Z" fill="#21916D"/>
<path d="M78.7979 82.6154C82.0382 80.4564 84.9914 77.8977 87.5871 75H107V105.462H99.3571V82.6154H78.7979Z" fill="#21916D"/>
<path d="M15.2857 97.8462V90.2308H91.7143V97.8462H15.2857Z" fill="#21916D"/>
</svg>
