<svg width="112" height="99" viewBox="0 0 112 99" fill="none" xmlns="http://www.w3.org/2000/svg">
<path d="M110.048 36.9023H77.7977C77.2434 36.9023 76.7898 37.3559 76.7898 37.9102V43.957C76.7898 44.5113 77.2434 44.9648 77.7977 44.9648H110.048C110.602 44.9648 111.055 44.5113 111.055 43.957V37.9102C111.055 37.3559 110.602 36.9023 110.048 36.9023ZM93.1668 54.0352H77.7977C77.2434 54.0352 76.7898 54.4887 76.7898 55.043V61.0898C76.7898 61.6441 77.2434 62.0977 77.7977 62.0977H93.1668C93.7211 62.0977 94.1746 61.6441 94.1746 61.0898V55.043C94.1746 54.4887 93.7211 54.0352 93.1668 54.0352ZM51.1284 25.6274H45.6736C44.8926 25.6274 44.2627 26.2573 44.2627 27.0384V58.2806C44.2627 58.7341 44.4769 59.1498 44.8422 59.4144L63.6001 73.0954C64.23 73.5489 65.1118 73.423 65.5653 72.7931L68.8029 68.3713V68.3587C69.2564 67.7288 69.1179 66.847 68.488 66.3935L52.5268 54.854V27.0384C52.5394 26.2573 51.8969 25.6274 51.1284 25.6274Z" fill="#21916D"/>
<path d="M92.386 69.8956H85.1046C84.3991 69.8956 83.7314 70.261 83.3535 70.8657C81.7536 73.3978 79.8891 75.741 77.7475 77.8826C74.0564 81.5737 69.7606 84.4711 64.9861 86.4867C60.0352 88.578 54.782 89.6362 49.365 89.6362C43.9354 89.6362 38.6822 88.578 33.7439 86.4867C28.9694 84.4711 24.6736 81.5737 20.9825 77.8826C17.2914 74.1914 14.3939 69.8956 12.3783 65.1211C10.2871 60.1828 9.2289 54.9296 9.2289 49.5C9.2289 44.0704 10.2871 38.8298 12.3783 33.8789C14.3939 29.1044 17.2914 24.8086 20.9825 21.1175C24.6736 17.4264 28.9694 14.5289 33.7439 12.5133C38.6822 10.4221 43.948 9.3639 49.365 9.3639C54.7946 9.3639 60.0478 10.4221 64.9861 12.5133C69.7606 14.5289 74.0564 17.4264 77.7475 21.1175C79.8891 23.2591 81.7536 25.6023 83.3535 28.1344C83.7314 28.7391 84.3991 29.1044 85.1046 29.1044H92.386C93.2553 29.1044 93.8096 28.1974 93.419 27.4289C85.2054 11.0898 68.5513 0.469956 49.9571 0.255796C22.7336 -0.084341 0.120789 22.2009 0.0703986 49.3993C0.0200079 76.648 22.1037 98.7569 49.3524 98.7569C68.1859 98.7569 85.1172 88.0993 93.419 71.5711C93.8096 70.8027 93.2427 69.8956 92.386 69.8956Z" fill="white"/>
</svg>
