<svg width="103" height="104" viewBox="0 0 103 104" fill="none" xmlns="http://www.w3.org/2000/svg">
<path d="M32.4286 70.3333H25V63C25.0029 60.0835 26.1779 57.2873 28.2669 55.225C30.356 53.1628 33.1885 52.0029 36.1429 52H58.4286V59.3333H36.1429C35.1581 59.3343 34.2139 59.7209 33.5175 60.4084C32.8212 61.0958 32.4296 62.0278 32.4286 63V70.3333ZM47.2857 48.3333C44.3472 48.3333 41.4748 47.4732 39.0315 45.8616C36.5883 44.25 34.684 41.9593 33.5595 39.2794C32.435 36.5994 32.1408 33.6504 32.714 30.8053C33.2873 27.9603 34.7023 25.3469 36.7801 23.2958C38.8579 21.2446 41.5052 19.8477 44.3872 19.2818C47.2692 18.7159 50.2565 19.0064 52.9713 20.1164C55.6861 21.2265 58.0065 23.1064 59.639 25.5183C61.2715 27.9302 62.1429 30.7659 62.1429 33.6667C62.1379 37.555 60.5711 41.2827 57.7859 44.0322C55.0007 46.7817 51.2246 48.3285 47.2857 48.3333ZM47.2857 26.3333C45.8165 26.3333 44.3802 26.7634 43.1586 27.5692C41.937 28.375 40.9849 29.5203 40.4226 30.8603C39.8604 32.2003 39.7132 33.6748 39.9999 35.0973C40.2865 36.5199 40.994 37.8265 42.0329 38.8521C43.0718 39.8777 44.3955 40.5761 45.8365 40.8591C47.2775 41.1421 48.7711 40.9968 50.1285 40.4418C51.4859 39.8867 52.6461 38.9468 53.4623 37.7409C54.2786 36.5349 54.7143 35.1171 54.7143 33.6667C54.7123 31.7223 53.929 29.8582 52.5363 28.4834C51.1436 27.1085 49.2553 26.3353 47.2857 26.3333ZM80.7143 74C77.7758 74 74.9034 73.1398 72.4601 71.5282C70.0169 69.9166 68.1126 67.626 66.9881 64.946C65.8636 62.266 65.5694 59.3171 66.1426 56.472C66.7159 53.627 68.1309 51.0136 70.2087 48.9624C72.2865 46.9113 74.9338 45.5144 77.8158 44.9485C80.6978 44.3826 83.6851 44.673 86.3999 45.7831C89.1147 46.8932 91.435 48.7731 93.0676 51.185C94.7001 53.5969 95.5714 56.4325 95.5714 59.3333C95.5665 63.2217 93.9996 66.9494 91.2144 69.6989C88.4293 72.4484 84.6531 73.9952 80.7143 74ZM80.7143 52C79.2451 52 77.8088 52.4301 76.5872 53.2359C75.3656 54.0417 74.4134 55.187 73.8512 56.527C73.2889 57.867 73.1418 59.3415 73.4285 60.764C73.7151 62.1865 74.4226 63.4932 75.4615 64.5188C76.5004 65.5444 77.824 66.2428 79.265 66.5258C80.706 66.8087 82.1997 66.6635 83.5571 66.1085C84.9145 65.5534 86.0747 64.6135 86.8909 63.4075C87.7072 62.2016 88.1429 60.7837 88.1429 59.3333C88.1409 57.389 87.3576 55.5249 85.9649 54.15C84.5722 52.7752 82.6839 52.0019 80.7143 52ZM103 96H95.5714V88.6667C95.5704 87.6945 95.1788 86.7624 94.4825 86.075C93.7861 85.3876 92.8419 85.001 91.8571 85H69.5714C68.5866 85.001 67.6425 85.3876 66.9461 86.075C66.2498 86.7624 65.8581 87.6945 65.8571 88.6667V96H58.4286V88.6667C58.4315 85.7502 59.6064 82.954 61.6955 80.8917C63.7845 78.8294 66.6171 77.6696 69.5714 77.6667H91.8571C94.8115 77.6696 97.644 78.8294 99.7331 80.8917C101.822 82.954 102.997 85.7502 103 88.6667V96Z" fill="#21916D"/>
<path d="M44.5 95.5797L25.0906 85.2169C19.7476 82.3702 15.2795 78.12 12.1658 72.9223C9.05203 67.7247 7.41027 61.7758 7.41669 55.7143V7.42857H81.5833V29.7143H89V7.42857C88.998 5.459 88.216 3.57065 86.8255 2.17795C85.4351 0.785249 83.5498 0.00196663 81.5833 0H7.41669C5.45027 0.00196663 3.56495 0.785249 2.17448 2.17795C0.784016 3.57065 0.00198891 5.459 2.5431e-05 7.42857V55.7143C-0.00823866 63.1219 1.99778 70.3918 5.80274 76.7439C9.60771 83.0959 15.0679 88.29 21.5974 91.7689L44.5 104V95.5797Z" fill="white"/>
</svg>
