<svg width="98" height="86" viewBox="0 0 98 86" fill="none" xmlns="http://www.w3.org/2000/svg">
<path d="M21.9365 52.7258H54.4127V59.5432H21.9365V52.7258ZM21.9365 39.0912H76.0635V45.9085H21.9365V39.0912ZM21.9365 25.4565H76.0635V32.2739H21.9365V25.4565Z" fill="#09C583"/>
<path d="M42.125 77.1875H7.75V7.8125H90.25V42.5H97.125V7.8125C97.125 5.97256 96.4007 4.20798 95.1114 2.90695C93.822 1.60591 92.0734 0.875 90.25 0.875H7.75C5.92664 0.875 4.17795 1.60591 2.88864 2.90695C1.59933 4.20798 0.875 5.97256 0.875 7.8125V77.1875C0.875 79.0274 1.59933 80.792 2.88864 82.0931C4.17795 83.3941 5.92664 84.125 7.75 84.125H42.125V77.1875Z" fill="white"/>
<path d="M69.625 75.7653L60.7219 66.7812L55.875 71.6722L69.625 85.5472L97.125 57.7972L92.2781 52.9062L69.625 75.7653Z" fill="#09C583"/>
</svg>
