<svg width="74" height="95" viewBox="0 0 74 95" fill="none" xmlns="http://www.w3.org/2000/svg">
<g filter="url(#filter0_d_588_2502)">
<rect y="54.7061" width="42.8598" height="43.7345" rx="16" transform="rotate(-23.6691 0 54.7061)" fill="#43E0A9"/>
</g>
<path d="M68.891 32.5558C75.8469 12.9497 72.7761 6.73229 70.3515 3.72923C67.9269 0.726164 62.848 -1.75382 54.6941 1.62257C27.8902 14.3589 23.7589 51.3659 23.1702 65.3864C23.0163 69.0254 25.7815 72.1248 29.4143 72.4038C34.366 72.7833 41.845 71.9402 51.7177 67.3556C67.81 59.8849 70.6489 56.7013 70.9915 49.9403C71.3566 42.7362 66.2818 39.1937 68.891 32.5558ZM69.2623 11.4851C70.1689 11.6861 70.7741 12.56 70.2059 13.9569C69.4797 15.7374 62.4644 21.5158 61.2398 20.6789C60.0151 19.842 61.1598 17.7784 62.5977 15.8953C66.1792 11.2041 68.7002 11.362 69.2623 11.4851ZM64.8828 4.74666C65.812 4.71999 66.53 5.60204 66.1587 7.0646C65.6869 8.92716 59.5413 15.6246 58.2121 14.9641C56.8829 14.3035 57.8736 12.4369 58.8459 10.2748C59.8921 7.94665 62.8418 4.80615 64.8828 4.74666ZM53.6788 7.73536C55.8285 3.90358 57.8552 2.78359 59.2931 2.77539C60.1649 2.77128 60.8357 3.57538 60.489 4.94768C60.0459 6.69332 54.2859 12.9702 53.0408 12.3507C51.7936 11.7333 52.5916 9.67177 53.6788 7.73536ZM38.5527 58.4018C35.7588 61.1321 32.926 63.5361 30.8953 63.6408L30.9096 63.7433C30.3722 63.7987 29.5414 63.5751 29.2009 63.1874C27.3794 61.1218 27.7343 57.5977 28.5691 51.5547C29.6071 44.0449 32.3332 35.7783 34.9506 29.7845C35.806 27.8276 36.8152 25.9425 37.9824 24.1538C40.9322 19.6327 46.8973 14.2543 51.4716 16.6461C51.4326 16.6605 51.3957 16.6789 51.3567 16.6953C51.3608 16.6953 51.3649 16.6953 51.3711 16.6953C56.0193 19.0174 59.4449 24.6399 52.5095 37.8788C46.0603 50.1885 45.1352 51.9629 38.5527 58.4018ZM66.8643 47.3455C66.7433 49.0644 65.97 50.6706 64.7659 51.9054C62.2613 54.4736 56.53 59.4972 49.4531 60.2418C49.4244 60.2439 49.3957 60.248 49.369 60.25C46.8685 60.4777 45.1742 57.7557 46.4521 55.5936C49.2849 50.8059 55.1557 42.2686 61.2828 42.2624C66.1997 42.2583 67.0285 45.0337 66.8643 47.3455ZM66.7987 32.7014C65.4223 34.1127 62.651 36.9619 58.9157 37.2901C57.4695 37.4173 56.7167 36.404 57.2439 35.0522C58.7536 31.1876 61.1413 25.6204 64.5444 25.6163C67.0756 25.6143 67.9741 28.6748 67.9741 29.8891C67.972 30.9435 67.5351 31.9486 66.7987 32.7014Z" fill="#F8652F"/>
<defs>
<filter id="filter0_d_588_2502" x="0" y="37.5" width="56.8115" height="62.2617" filterUnits="userSpaceOnUse" color-interpolation-filters="sRGB">
<feFlood flood-opacity="0" result="BackgroundImageFix"/>
<feColorMatrix in="SourceAlpha" type="matrix" values="0 0 0 0 0 0 0 0 0 0 0 0 0 0 0 0 0 0 127 0" result="hardAlpha"/>
<feOffset dy="5"/>
<feComposite in2="hardAlpha" operator="out"/>
<feColorMatrix type="matrix" values="0 0 0 0 0.0334029 0 0 0 0 0.770833 0 0 0 0 0.512498 0 0 0 1 0"/>
<feBlend mode="normal" in2="BackgroundImageFix" result="effect1_dropShadow_588_2502"/>
<feBlend mode="normal" in="SourceGraphic" in2="effect1_dropShadow_588_2502" result="shape"/>
</filter>
</defs>
</svg>
